<svg xmlns="http://www.w3.org/2000/svg" xml:space="preserve" viewBox="0 0 1190.55 841.89"><path fill="#008752" fill-rule="evenodd" d="M442.955 181.858c1.078-7.033 1.384-13.641 3.185-19.814 4.561-15.667 15.082-26.175 30.505-31.206 4.425-1.443 6.023-3.643 7.159-7.798 7.53-27.555 33.174-42.221 60.831-35.058 18.033 4.672 30.186 20.803 30.775 43.475.885 34.036.883 68.1.986 102.155.241 81.216.357 162.432.43 243.661.002 6.002-.484 12.03-1.138 18.005-1.873 17.149-8.716 25.059-23.684 27.76-14.321 2.586-29.072-4.451-35.782-17.162-1.202-2.267-2.164-4.659-3.215-6.948-34.163 9.942-56.585-16.881-51.395-44.846-19.055 4.837-36.146 2.127-49.044-13.591-12.689-15.459-12.618-32.481-3.942-50.425-12.971.771-23.654-2.367-31.16-12.681-8.728-11.993-8.458-26.929 1.241-38.408 3.2-3.788 3.436-6.539 1.488-10.968-12.996-29.473-5.564-61.379 18.591-82.776 2.053-1.819 3.853-5.55 3.571-8.154-3.198-29.709 11.079-49.408 40.598-55.221m49.672 120.492c.604-.652 1.212-1.317 1.823-1.97 17.659 20.746 41.404 24.609 67.441 25.326 0-9.931.555-19.081-.213-28.103-.435-5.172-1.991-10.835-4.809-15.108-11.407-17.272-28.069-26.919-48.17-31.002-1.436-.296-2.779-1.051-4.164-1.6l.421-1.917c9.202.534 18.404 1.06 26.823 1.544-2.062-6.613-4.252-13.613-7.07-22.638a366215 366215 0 0 1 34.729 45.389c.794-.424 1.586-.852 2.376-1.274 0-10.922-.315-21.859.133-32.773.229-5.624-1.536-8.904-6.36-11.984-13.139-8.391-19.848-21.009-21.918-36.241 7.782 10.567 13.77 22.756 27.503 28.362 0-30.455 1.144-60.054-.394-89.512-1.062-20.421-14.864-30.408-34.046-27.997-14.006 1.756-23.45 9.636-28.118 23.015-4.614 13.23-3.044 26.118 2.259 39.044-4.209-5.056-7.989-10.251-10.814-15.928-1.806-3.622-3.622-4.281-7.284-3.297-15.015 4.044-25.838 18.796-24.178 34.282.657 6.137 2.8 12.113 4.426 18.804-2.845-1.959-5.158-3.556-6.089-4.193-5.765 1.612-10.12 3.208-14.623 4.022-15.142 2.733-25.856 15.463-26.044 30.882-.136 11.294 4.758 20.327 11.419 29.346l-11.736-6.507c-35.066 28.94-37.264 59.477-5.928 94.71-3.667-1.089-6.322-1.371-8.431-2.599-4.043-2.356-6.515-.818-9.492 2.073-6.476 6.297-7.425 13.706-4.873 21.681 2.602 8.128 9.109 12.53 17.194 12.71 9.535.203 19.101-1.205 27.052-1.792-3.69 7.254-9.178 15.585-12.307 24.724-6.196 18.109 2.569 34.695 19.565 38.969 11.271 2.841 21.82.668 31.502-5.617 4.296-2.778 8.378-5.899 13.47-9.509-2.335 6.718-4.71 12.172-6.072 17.866-1.389 5.809-2.598 11.864-2.46 17.776.445 19.208 14.88 29.484 32.449 23.216 2.576-.923 4.797-3.994 6.271-6.578 2.794-4.915 4.925-10.201 7.332-15.336.793.298 1.589.605 2.385.913 0 4.375-.517 8.827.119 13.114.994 6.671 2.061 13.49 4.374 19.788 3.558 9.662 11.349 13.604 21.206 12.029 8.411-1.346 12.217-5.684 12.647-17.033.57-15.177.21-30.384.242-45.585.011-4.07.004-8.153.004-12.685-14.938 1.587-17.552 13.117-22.79 24.777-.392-12.774 2.863-22.959 10.203-29.731 12.25-11.312 14.016-24.661 12.422-39.674-.196-1.816-.027-3.657-.029-5.503-.013-11.747-2.034-13.167-13.927-11.184-12.202 2.033-20.573 9.842-29.522 17.699 2.335-4.378 4.664-8.739 6.613-12.402h-34.713c4.394-1.087 9.09-.677 13.165-2.072 18.488-6.336 36.823-13.104 55.114-19.99 1.444-.539 2.92-3.008 3.044-4.686.382-5.4.139-10.839.139-16.635-22.841-1.679-44.787-3.303-67.033-4.94 4.232-1.996 8.553-4.018 12.624-5.926-5.012-6.923-9.949-13.731-14.882-20.54" clip-rule="evenodd"/><path fill="#FDD219" fill-rule="evenodd" d="M611.825 267.886c6.127-37.795 20.022-72.446 39.31-105.289-4.006 15.639-8.201 31.231-11.954 46.931-3.806 15.938-7.173 31.981-9.659 48.72 17.443-15.924 36.332-28.101 61.082-33.635-2.26 1.756-3.002 2.548-3.908 3.008-38.554 19.545-61.562 50.85-70.402 92.916-2.816 13.413-5.681 26.798-7.818 40.518 20.713-46.354 53.714-80.204 99.945-101.123-47.718 32.564-74.593 78.292-86.277 134.539 24.617-11.571 34.133-19.659 53.123-44.846 1.102 12.8-5.848 26.478-18.602 36.361-5.795 4.493-11.577 9.009-17.595 13.182-22.133 15.356-26.635 37.175-23.984 62.26 2.252 21.324 7.385 41.542 19.74 60.394h-52.15c8.952-12.246 8.559-26.108 8.559-39.915-.012-41.402-.175-82.816.182-124.218.081-9.559 1.049-19.35 3.324-28.603 5.109-20.82 3.588-41.426 1.245-62.383-2.739-24.405-3.949-48.982-4.488-73.688 13.354 23.251 6.059 51.768 20.327 74.871" clip-rule="evenodd"/><path fill-rule="evenodd" d="M785.971 601.763c-.765 2.227-2.266 3.547-4.291 4.617.631.075 1.068.103 1.498.182 5.466 1.014 8.576 6.346 6.857 11.721-.865 2.704-2.453 4.965-4.347 7.024-3.886 4.222-8.337 7.679-13.687 9.864-7.411 3.03-14.917 3.607-22.425.442-6.121-2.58-10.699-6.972-13.926-12.732-4.607-8.229-5.962-16.963-3.784-26.19.023-.09.034-.184.046-.277 0-.018-.023-.041-.076-.13-2.85 1.472-5.81 1.339-8.882.378-.295 1.287-.578 2.5-.848 3.715-1.413 6.342-2.819 12.685-4.232 19.027-.669 3.008-1.28 6.032-2.047 9.014-.803 3.129-2.548 5.634-5.545 7.026-5.56 2.579-11.975-.72-13.237-6.745a13 13 0 0 1-.048-5.09c.038-.203.05-.411-.042-.656-.244.561-.468 1.136-.739 1.686-2.586 5.256-6.775 8.779-12.104 10.991-6.669 2.77-13.513 2.946-20.427 1.047-2.017-.552-3.943-1.363-5.669-2.587-3.24-2.3-4.475-5.677-3.495-9.558.543-2.145 1.482-4.073 3.269-5.448 2.053-1.581 4.459-2.023 6.945-1.603 2.262.382 4.474 1.046 6.707 1.587 2.056.498 4.09.475 6.087-.283.221-.085.449-.162.653-.279.591-.344 1.151-.749 1.054-1.539-.088-.718-.754-.829-1.279-.929-2.421-.467-4.843-.917-7.277-1.297-4.372-.687-8.699-1.503-12.626-3.687-4.21-2.339-6.93-5.817-8.038-10.525a7 7 0 0 0-.147-.549c-.04-.111-.107-.21-.224-.439l.427 8.064c.317 6.09.653 12.179.945 18.273.143 2.994-.652 5.689-2.562 8.08-3.233 4.05-11.935 5.085-15.518-1.949-.986-1.938-1.252-4.01-1.354-6.131a88391 88391 0 0 0-1.618-32.709c-.047-.961-.111-1.922-.309-2.915-.127.359-.227.73-.385 1.075-1.088 2.37-2.167 4.745-3.284 7.1-4.929 10.365-9.871 20.725-14.805 31.087-.933 1.963-2.033 3.785-3.652 5.291-3.838 3.57-12.079 3.354-15.36-2.857-1.213-2.297-1.777-4.794-2.474-7.254-3.225-11.38-6.427-22.767-9.637-34.152-.217-.767-.433-1.533-.785-2.271.052 1.152.093 2.304.155 3.455.549 10.308 1.114 20.615 1.646 30.925.113 2.219.35 4.439-.116 6.666-1.306 6.221-8.019 9.7-13.594 6.914-3.33-1.663-5.025-4.593-5.373-8.205-.342-3.54-.435-7.103-.618-10.659-.372-7.275-.732-14.551-1.094-21.827-.092-1.821-.177-3.644-.385-5.492-.044.13-.098.257-.13.39-.708 3.036-2.165 5.482-5.316 6.49-2.14.685-4.306.575-6.456-.022-.267-.073-.537-.139-.881-.227-.363 1.619-.711 3.163-1.054 4.706-1.33 5.972-2.655 11.944-3.986 17.914-.677 3.032-1.29 6.081-2.065 9.086-.833 3.228-2.639 5.792-5.785 7.156-5.006 2.174-10.715-.328-12.593-5.453-.111-.303-.221-.608-.369-1.019-.331.406-.587.736-.862 1.052-1.684 1.933-3.822 3.251-6.065 4.408-7.616 3.934-15.438 4.355-23.357 1.087-5.109-2.11-8.965-5.813-12.012-10.359-4.385-6.541-5.953-13.841-5.458-21.607.576-9.022 4.267-16.614 11.045-22.596 5.65-4.985 12.384-6.77 19.816-6.124a28.6 28.6 0 0 1 9.444 2.5c2.963 1.352 5.537 3.13 6.696 6.424.182-1.135.286-2.229.542-3.287 1.154-4.771 5.674-7.535 10.449-6.4.562.135.69-.073.801-.549.562-2.4 1.003-4.842 1.768-7.177 1.015-3.091 3.007-5.431 6.195-6.504 4.258-1.431 10.875.621 12.2 7.345.489 2.483.128 4.909-.474 7.321-.304 1.22-.545 2.454-.855 3.671-.137.547.069.672.564.794 1.169.29 2.362.564 3.462 1.04 2.424 1.05 3.635 2.481 4.581 5.174.889-5.79 3.734-9.604 9.91-9.662 4.885-.045 7.582 2.991 9.17 7.521.083-.363.143-.543.163-.727.522-4.852 4.278-7.708 8.512-8.174 1.521-.167 3.033-.025 4.492.486 3.215 1.128 4.892 3.595 5.61 6.739 1.612 7.05 3.122 14.123 4.672 21.186.213.968.423 1.939.674 3.088.155-.298.247-.442.307-.599 2.799-7.304 5.584-14.614 8.397-21.912.828-2.146 2.033-4.018 4.123-5.182 3.691-2.054 11.111-1.133 13.673 5.089q.116.278.235.553c.425-1.066.726-2.147 1.258-3.104 2.077-3.737 5.346-5.381 9.547-4.927 3.92.423 6.37 2.854 7.689 6.428.438 1.182.614 2.487.73 3.752.185 1.982.213 3.98.315 5.971.018.339.073.676.257 1.015.128-.662.232-1.33.387-1.987 1.151-4.781 3.998-8.368 7.933-11.179 5.506-3.929 11.676-5.275 18.337-4.701 3.456.299 6.696 1.246 9.655 3.103 6.043 3.788 5.332 12.069.497 15.544-1.924 1.382-4.05 1.468-6.266 1.059-2.167-.398-4.331-.829-6.506-1.19-1.344-.224-2.698-.22-4.004.26-.329.123-.658.29-.931.506-.788.63-.683 1.657.271 1.927 1.499.424 3.032.782 4.574.999 4.468.624 8.937 1.237 13.176 2.86 4.889 1.868 8.549 5.046 10.318 10.107.912 2.607 1.269 5.297 1.011 8.059-.023.255-.037.512.077.79q.653-2.887 1.301-5.774c1.531-6.825 3.057-13.652 4.607-20.474.121-.532.012-.666-.512-.788-2.916-.676-5.385-2.028-6.367-5.063-1.166-3.617-.716-7.085 1.774-10.044 2.199-2.612 5.135-3.333 8.439-2.707.205.038.407.089.71.154.261-1.142.478-2.252.768-3.342.484-1.829.832-3.725 1.569-5.452 1.304-3.052 3.53-5.221 6.941-5.824 4.244-.755 9.767 1.463 11.039 7.513.521 2.484.161 4.907-.43 7.323-.301 1.22-.539 2.455-.854 3.672-.144.568-.017.756.58.909 1.303.335 2.627.681 3.837 1.243 2.675 1.244 4.067 3.457 4.377 6.369l.054.547.189.143c.068-.138.118-.287.205-.411 6.37-8.823 15.008-12.656 25.787-11.468 5.203.574 9.718 2.914 13.799 6.139 3.925 3.102 7.021 6.842 8.976 11.479.044.108.103.208.253.508.151-.836.26-1.486.386-2.133.821-4.228 3.007-7.645 6.247-10.411 5.683-4.853 12.323-6.699 19.697-6.172 3.578.256 6.939 1.185 10.026 3.086 6.127 3.774 5.436 12.089.609 15.582-1.941 1.404-4.087 1.487-6.328 1.072-2.169-.402-4.333-.832-6.508-1.189-1.317-.218-2.651-.211-3.933.257-.329.12-.66.283-.938.495-.835.644-.729 1.674.277 1.959 1.499.424 3.032.773 4.575.988 4.467.629 8.935 1.245 13.175 2.87 4.969 1.902 8.741 5.143 10.356 10.333 2.465 7.913.587 14.825-5.433 20.506-4.386 4.139-9.745 6.22-15.692 6.838-4.1.425-8.153.16-12.12-1.017-1.983-.588-3.91-1.338-5.617-2.532-3.329-2.328-4.568-5.631-3.62-9.574.373-1.563 1-3.015 2.024-4.264 2.127-2.601 5.012-3.29 8.139-2.849 2.288.321 4.521 1.039 6.776 1.587 2.058.5 4.09.477 6.088-.282.133-.051.271-.091.396-.155.671-.34 1.365-.709 1.309-1.593-.055-.889-.891-.944-1.487-1.062-2.348-.46-4.706-.868-7.072-1.234-4.373-.681-8.698-1.501-12.629-3.687-3.558-1.978-6.127-4.813-7.499-8.683-.051-.149-.132-.289-.278-.607m-265.074-15.386c-.025.125-.067.248-.069.374-.028 1.571-.428 3.049-1.12 4.448-1.036 2.091-2.47 3.758-4.803 4.466-1.688.513-3.342.233-4.982-.198-1.969-.519-3.909-1.17-5.895-1.611-3.898-.871-7.438.783-9.407 4.252-1.151 2.027-1.692 4.217-1.797 6.521-.188 4.095.647 7.892 3.37 11.093 2.115 2.487 4.804 3.571 8.01 2.762 1.59-.401 3.073-1.221 4.622-1.808 1.457-.551 2.9-1.305 4.413-1.509 3.648-.497 6.274 1.294 8.212 4.26.129.194.271.383.476.676l.769-3.428c1.79-7.985 3.574-15.969 5.385-23.948.125-.555-.021-.67-.528-.779-1.667-.359-3.203-1.018-4.487-2.185-1.023-.93-1.678-2.085-2.169-3.386m256.315 21.832-.073-.126-22.781 8.214c1.295 1.353 2.726 2.162 4.389 2.468 4.029.737 7.703-.223 10.74-2.909 2.711-2.396 5.159-5.085 7.725-7.647m-12.487-11.705c-1.449-3.101-6.189-4.5-9.919-3.097-3.983 1.498-5.89 5.205-5.508 8.612 5.134-1.835 10.256-3.665 15.427-5.515m-348.471-14.536c1.417-4.031 4.136-6.53 8.355-6.883 3.964-.331 7.578.574 9.864 4.384 2.761-2.883 6.202-3.575 9.938-3.061 3.944.542 6.371 2.971 7.649 6.729.387-.916.664-1.768 1.085-2.539 1.999-3.657 5.571-5.448 9.765-4.947 3.474.415 6.675 3.256 7.675 6.96.342 1.269.512 2.607.586 3.925.478 8.411.911 16.824 1.353 25.236.251 4.764.526 9.525.726 14.292.125 2.944-.713 5.585-2.594 7.927-3.213 4.001-11.927 5.082-15.51-2.019-.839-1.665-1.192-3.439-1.284-5.281q-.525-10.596-1.053-21.19-.376-7.536-.759-15.074c-.006-.108-.052-.215-.111-.46-1.017 2.229-2.636 3.665-4.758 4.514-1.517.608-3.078 1.104-4.608 1.683-1.571.596-3.188 1.113-4.675 1.877-2.517 1.29-3.788 3.395-3.932 6.293-.272 5.475-.69 10.941-1.057 16.411-.146 2.178-.196 4.37-.497 6.526-.539 3.876-2.356 7.004-6.094 8.569-5.212 2.184-11.049-.783-12.666-6.255-.657-2.221-.501-4.457-.351-6.707.452-6.773.899-13.545 1.351-20.317.219-3.267.445-6.533.668-9.801l.07-.992c-.145.062-.244.073-.289.127-2.059 2.539-4.83 3.375-7.965 3.328a35 35 0 0 1-2.134-.093c-.443-.033-.626.091-.659.572-.453 6.794-.913 13.591-1.397 20.382-.295 4.166-.527 8.339-.984 12.486-.436 3.953-3.446 7.42-6.995 8.252-4.343 1.017-9.033-.483-11.19-5.55-.081-.193-.157-.387-.316-.779-.159.756-.251 1.325-.398 1.882-1.248 4.712-5.79 7.637-10.61 6.845-4.533-.744-7.056-3.216-8.216-8.077-.561-2.354-1.123-4.706-1.626-7.069-.147-.689-.412-.975-1.14-1.032-3.169-.246-6.334-.56-9.5-.845-4.324-.391-8.65-.764-12.973-1.179-.549-.053-.787.086-.996.597-1.078 2.634-2.146 5.273-3.323 7.86-1.168 2.568-3.013 4.477-5.811 5.284-5.604 1.614-11.519-1.922-12.655-7.632-.45-2.265-.079-4.481.88-6.595 5.667-12.505 11.324-25.016 16.984-37.523 2.63-5.812 5.236-11.633 7.896-17.433 1.568-3.417 3.924-6.173 7.315-7.887 6.31-3.19 14.096-.388 17.221 6.119 1.141 2.374 1.669 4.934 2.315 7.457 2.841 11.092 5.671 22.188 8.499 33.282 1.763 6.916 3.514 13.835 5.272 20.75.027.106.077.211.261.328.033-.229.083-.462.099-.695q.523-7.849 1.04-15.698c.322-4.9.629-9.803.976-14.702.046-.667-.109-.864-.799-.931-5.012-.478-7.992-3.846-7.982-8.891.007-3.34 1.202-6.054 4.021-7.956 1.594-1.073 3.372-1.517 5.271-1.348.633.056.76-.135.812-.697.25-2.713.41-5.446.845-8.133.592-3.655 2.117-6.933 4.707-9.638 3.248-3.393 7.278-4.971 11.941-4.945 2.669.018 5.301.328 7.828 1.271 4.054 1.513 6.137 4.827 5.662 9.133-.124 1.125-.3 2.272-.654 3.341-1.031 3.117-3.358 4.752-6.715 4.845-.616.018-1.234-.03-1.851-.017-.993.02-1.798.481-1.966 1.43-.264 1.485-.327 3.007-.434 4.518-.007.102.309.308.493.334 1.197.171 2.411.239 3.599.461 3.125.584 4.436 1.545 6.505 4.661m-70.287 20.115c3.995.34 7.952.679 12.016 1.027l-4.547-20.528z" clip-rule="evenodd"/><path fill-rule="evenodd" d="M460.495 553.11c5.718.084 10.639 5.168 10.472 11.046-.127 4.45-2.081 7.965-6.088 9.98-3.889 1.956-8.676 1.474-12.171-2.593-6.053-7.039-1.957-15.416 4.401-17.723 1.073-.387 2.254-.48 3.386-.71" clip-rule="evenodd"/><path fill="#FDD219" fill-rule="evenodd" d="M568.493 553.107c6.026.094 11.041 5.739 10.418 11.851-.42 4.117-2.345 7.34-6.067 9.188-3.81 1.895-8.539 1.468-12.028-2.455-6.059-6.812-2.409-15.359 4.226-17.852 1.088-.407 2.297-.497 3.451-.732" clip-rule="evenodd"/><path fill-rule="evenodd" d="M638.308 553.106c6.019.111 11.041 5.789 10.394 11.875-.438 4.115-2.358 7.333-6.086 9.179-3.709 1.835-8.404 1.513-11.929-2.38-6.2-6.849-2.485-15.473 4.166-17.947 1.091-.406 2.299-.493 3.455-.727" clip-rule="evenodd"/><path fill="#008752" d="m372.289 720.409-.304 2.787a191 191 0 0 0-.469 4.993h-1.931q-13.464 0-23.946-3.394-10.484-3.393-17.215-9.849-4.69-4.47-7.421-10.704t-2.731-14.235q0-7.171 2.704-13.104 2.703-5.93 7.062-10.346 6.344-6.4 17.049-10.152t22.898-3.752h2.483q.054.994.221 3.173.165 2.18.386 4.718h-1.879q-6.906 0-14.309 1.518-7.404 1.518-12.762 4.552-6.961 3.973-10.718 10.18-3.756 6.209-3.756 13.38 0 7.45 3.37 13.546 3.37 6.098 10.662 10.235 5.967 3.422 13.341 4.966 7.375 1.545 14.668 1.545h1.05q.717-.001 1.547-.057m23.339-59.755h-9.711v-9.49h9.711zm-.497 66.542h-8.718q.055-.883.138-10.869t.083-16.498q0-5.682-.027-12.497-.028-6.814-.193-15.974h8.718q-.11 7.946-.193 14.87-.082 6.924-.082 12.331 0 12.856.138 20.637.135 7.78.136 8m51.093-6.842-.993 7.008q-.386.054-1.904.109a73 73 0 0 1-2.621.056q-11.311 0-17.104-4.718t-5.793-14.483q0-6.124.083-13.132.082-7.007.082-17.381h-9.27v-6.455h9.766v-13.076h8v13.076h19.753v6.455H426.47q0 1.16-.082 6.897a638 638 0 0 0-.083 8.497v13.684q0 7.173 3.862 10.346t11.918 3.172q.993 0 2.373-.027 1.379-.028 1.766-.028m23.781-59.7h-9.711v-9.49h9.711zm-.497 66.542h-8.718q.055-.883.138-10.869t.083-16.498q0-5.682-.027-12.497-.028-6.814-.193-15.974h8.718q-.11 7.946-.193 14.87-.082 6.924-.082 12.331 0 12.856.138 20.637.135 7.78.136 8m60.914-.331-9.297-.027a4627 4627 0 0 0-13.325-.028q-5.518 0-13.325.028l-8.194.027-1.821-5.186q5.46-7.007 14.589-18.787a5968 5968 0 0 0 18.56-24.084l-.055-.111q-2.372 0-4.826-.027a456 456 0 0 0-4.716-.027q-5.293 0-13.485.083-8.19.083-8.631.083v-6.897l8.994.027q8.496.028 10.428.028 3.861 0 12.001-.028 8.138-.027 8.855-.027l2.814 5.186q-9.438 11.752-20.311 26.016-10.874 14.264-12.749 16.635l.055.111q2.097 0 5.492.027 3.393.028 7.312.027 11.148 0 16.226-.083t5.409-.083zm56.776-29.63h-39.892q.054 5.849 2.483 10.732 2.427 4.883 7.449 8.083 3.199 2.042 7.283 3.062 4.082 1.021 9.821 1.021 3.145 0 5.766-.166 2.62-.164 3.228-.221l-.993 7.339q-.442.056-2.924.193-2.483.137-5.849.138-8.829 0-15.366-2.29-6.539-2.288-10.732-6.317-3.587-3.365-6.097-8.607t-2.51-11.643q0-6.29 1.876-11.365 1.875-5.077 5.628-9.435 3.255-3.752 8.083-5.793a25.5 25.5 0 0 1 10.014-2.042q5.132 0 9.104 1.545a18.4 18.4 0 0 1 6.897 4.69q3.255 3.532 4.966 8.689 1.709 5.16 1.765 12.387m-8.552-6.179q-.884-6.841-4.662-10.732-3.78-3.89-9.959-3.89t-10.318 3.945-5.738 10.676zm68.914 36.14h-8.718q.055-1.545.138-10.207t.083-10.705q0-2.868-.028-8.469a568 568 0 0 0-.082-8.193q-.165-6.345-2.428-9.104t-7.835-2.759q-3.366 0-8.331 1.986-4.966 1.987-10.043 5.076 0 .608-.055 6.566a1174 1174 0 0 0-.055 10.869q0 6.402.137 15.449.139 9.05.139 9.49h-8.718q0-.386.11-6.759t.11-18.953q0-5.793-.028-13.573-.026-7.78-.192-16.553h8.607l-.056 6.346.056.109q7.724-4.413 12.884-6.151 5.158-1.738 8.58-1.738 7.061 0 11.338 4.441 4.276 4.442 4.276 12.167 0 6.952-.083 12a522 522 0 0 0-.082 8.193q0 5.022.137 12.553.14 7.535.139 7.919"/><path fill="#E52329" d="M715.427 727.086q-.663 0-6.979-.056-6.319-.054-16.139-.055-6.456 0-12.277.055-5.822.056-9.849.056.11-9.49.192-19.228.085-9.738.084-19.118 0-15.67-.111-23.892t-.165-11.532h9.105a1696 1696 0 0 0-.166 16.429q-.055 9.317-.055 15.272 0 14.499.055 24.202.054 9.704.055 10.254 2.262 0 5.463.027 3.2.029 5.793.027 9.876 0 17.188-.082 7.311-.084 7.808-.083v7.724zm51.258-31.34q0 13.684-.056 22.291a4678 4678 0 0 0-.056 9.269q-.551.054-5.131.414-4.58.358-11.808.358-4.526 0-9.104-.828-4.58-.827-7.89-2.372-4.415-2.041-7.146-5.573-2.73-3.531-2.731-8.496 0-5.242 3.227-9.077 3.228-3.834 8.967-6.207 3.587-1.49 9.572-2.676 5.987-1.187 13.656-1.794-.332-4.303-2.151-7.062-1.822-2.758-5.352-4.193-2.428-.993-5.406-1.406-2.98-.414-6.953-.414-2.482 0-4.221.11-1.737.11-4.717.276l.883-7.339q.827-.054 3.283-.193 2.454-.137 6.703-.138 6.51 0 11.615 1.352 5.102 1.353 8.469 4.387 3.145 2.87 4.745 7.09 1.602 4.221 1.602 12.221m-8.442 13.298v-4.746q0-2.868-.056-6.621-2.429.111-8.496.966-6.07.856-10.208 2.456a15.8 15.8 0 0 0-5.489 3.476q-2.401 2.318-2.4 5.738 0 3.753 2.041 6.042t5.572 3.504q2.705.937 5.986 1.352 3.284.413 6.926.414 1.102 0 2.703-.056 1.6-.054 3.365-.11 0-.386.027-3.642.03-3.256.029-8.773m75.812-10.234q0 9.04-4.441 15.545-4.442 6.504-12.001 9.701-4.91 2.094-11.2 3.059t-15.119.965h-4.911q.054-4.245.139-15.77.082-11.525.082-27.734a3322 3322 0 0 0-.221-38.267h8.718l-.165 25.437q11.31.11 18.125 2.012 6.814 1.903 11.338 5.153 4.69 3.363 7.174 8.407 2.481 5.043 2.482 11.492m-8.828.221q0-6.668-3.779-11.187t-9.738-6.558q-3.091-1.046-6.677-1.626a46.5 46.5 0 0 0-7.393-.578h-2.703q0 1.213-.027 8.789-.029 7.578-.028 12.481 0 9.203.056 13.004.054 3.803.055 7.714 6.069 0 11.09-.908 5.021-.91 8.663-2.838 5.296-2.811 7.89-7.412 2.59-4.599 2.591-10.881"/><g fill="#E51A31" fill-rule="evenodd" clip-rule="evenodd"><path d="M588.545 154.07c.616-.026.616-.026 1.386-2.864l2.34-.339c.94 1.983 2.652 1.604 4.411 1.314.668 2.601 2.676 2.02 4.516 1.801.21 3.09 2.99 3.121 5.572 1.906-.892 2.896-1.767 5.798-2.703 8.68-.087.267-.575.566-.881.569-4.152.038-8.303.026-12.018.026-1.113-1.752-1.97-3.163-2.89-4.532-1.374-2.052-2.869-4.029-4.174-6.125-1.708-2.749.031-6.376 3.245-6.959.973-.177 1.972.583 1.909 1.747-.087 1.578-.455 3.139-.713 4.776"/><path d="M601.685 147.602c0 .937-.019 1.877.008 2.814.038 1.382-.782 1.808-1.978 1.81-1.217.003-1.95-.46-1.909-1.844.059-1.875.036-3.753.008-5.628-.02-1.308.672-1.709 1.86-1.709 1.22-.002 2.032.351 2.014 1.74-.012.939-.003 1.879-.003 2.817m-4.548-1.708c0 .984-.01 1.97.002 2.954.015 1.271-.827 1.575-1.848 1.585-1.077.012-1.976-.283-1.973-1.629.002-2.018-.006-4.037.006-6.057.009-1.284.906-1.517 1.915-1.497.997.018 1.887.27 1.896 1.541.009 1.034.002 2.068.002 3.103m5.212 4.097c0-1.041.01-2.081-.002-3.121-.015-1.021.568-1.415 1.492-1.426.935-.013 2.062-.182 2.14 1.188.126 2.222.223 4.453.138 6.672-.046 1.215-1.151 1.353-2.139 1.289-.896-.055-1.663-.335-1.634-1.48.024-1.041.005-2.082.005-3.122m-14.684-3.679c.237-1.227.339-2.256.646-3.22.42-1.31 1.442-1.982 2.81-2.033.943-.034 1.585.288 1.539 1.444-.065 1.581-.003 3.169-.018 4.753-.017 1.648-.445 1.986-2.312 1.783-.068-1.473-.278-2.926-2.665-2.727"/></g><g fill="#E51A31" fill-rule="evenodd" clip-rule="evenodd"><path d="M654.718 82.209c.605.118.605.118 2.017-2.461l2.354.217c.45 2.148 2.204 2.179 3.982 2.308.042 2.685 2.13 2.59 3.97 2.806-.518 3.054 2.179 3.733 4.973 3.155-1.544 2.608-3.071 5.225-4.655 7.808-.147.239-.691.416-.989.348-4.047-.933-8.08-1.914-11.692-2.782-.674-1.964-1.177-3.536-1.751-5.082-.857-2.316-1.849-4.588-2.628-6.931-1.019-3.072 1.519-6.192 4.78-6.008.987.055 1.781 1.027 1.449 2.145-.454 1.513-1.176 2.946-1.81 4.477"/><path d="M669.006 78.989c-.219.911-.457 1.821-.649 2.739-.286 1.353-1.183 1.575-2.346 1.297-1.184-.281-1.789-.903-1.426-2.239.495-1.809.912-3.641 1.322-5.47.286-1.276 1.053-1.505 2.208-1.227 1.187.283 1.895.815 1.552 2.162-.232.91-.441 1.826-.661 2.738m-4.024-2.723c-.23.957-.47 1.913-.688 2.873-.282 1.239-1.173 1.338-2.167 1.109-1.05-.24-1.855-.737-1.537-2.044.473-1.961.937-3.927 1.42-5.888.309-1.247 1.235-1.263 2.212-1.009.965.251 1.771.703 1.484 1.941-.234 1.008-.482 2.012-.724 3.018m4.111 5.201c.243-1.012.495-2.021.728-3.035.224-.997.883-1.243 1.783-1.038.912.206 2.048.305 1.804 1.654-.396 2.189-.824 4.382-1.425 6.52-.328 1.17-1.435 1.046-2.381.754-.857-.262-1.539-.714-1.242-1.821.266-1.006.49-2.023.733-3.034m-13.418-7.007c.517-1.137.857-2.114 1.381-2.979.714-1.175 1.865-1.591 3.206-1.321.926.187 1.475.65 1.159 1.764-.433 1.522-.743 3.081-1.127 4.617-.401 1.599-.897 1.827-2.664 1.194.276-1.449.412-2.911-1.955-3.275"/></g><g fill="#E51A31" fill-rule="evenodd" clip-rule="evenodd"><path d="M686.4 92.596c.55.28.55.28 2.616-1.812.711.276 1.432.555 2.204.856-.158 2.189 1.519 2.701 3.194 3.313-.698 2.594 1.336 3.076 3.045 3.789-1.337 2.794 1.068 4.188 3.914 4.401-2.202 2.083-4.39 4.179-6.623 6.227-.207.19-.779.21-1.047.063-3.635-2.01-7.242-4.062-10.477-5.889-.108-2.074-.16-3.723-.286-5.368-.189-2.462-.517-4.92-.622-7.386-.135-3.233 3.164-5.535 6.248-4.462.935.325 1.431 1.478.805 2.461-.852 1.33-1.94 2.509-2.971 3.807"/><path d="M701.023 93.429c-.461.815-.94 1.625-1.378 2.455-.646 1.222-1.57 1.188-2.611.603-1.061-.596-1.473-1.36-.756-2.544.974-1.604 1.878-3.249 2.775-4.896.626-1.148 1.426-1.158 2.46-.573 1.063.598 1.598 1.305.897 2.505-.472.81-.925 1.633-1.387 2.45m-3.12-3.725c-.484.857-.977 1.71-1.451 2.573-.612 1.113-1.496.964-2.389.471-.943-.52-1.581-1.218-.916-2.388.994-1.756 1.98-3.518 2.984-5.271.639-1.114 1.534-.875 2.403-.362.858.507 1.51 1.163.894 2.275-.501.904-1.016 1.801-1.525 2.702m2.523 6.131c.512-.906 1.031-1.807 1.534-2.718.488-.896 1.19-.952 1.999-.507.82.449 1.886.856 1.279 2.086-.982 1.996-1.997 3.987-3.162 5.877-.637 1.035-1.668.611-2.496.07-.753-.488-1.283-1.11-.693-2.093.532-.894 1.027-1.81 1.539-2.715m-10.975-10.426c.81-.951 1.404-1.797 2.146-2.485 1.01-.934 2.231-1.017 3.446-.389.838.435 1.238 1.031.629 2.015-.834 1.344-1.562 2.757-2.353 4.129-.826 1.427-1.365 1.51-2.89.415.666-1.316 1.198-2.685-.978-3.685"/></g><g fill="#E51A31" fill-rule="evenodd" clip-rule="evenodd"><path d="M718.03 112.038c.503.357.503.357 2.852-1.413l2.057 1.166c-.475 2.144 1.111 2.893 2.68 3.742-1.067 2.465.876 3.237 2.463 4.191-1.728 2.57.449 4.299 3.234 4.922-2.481 1.741-4.949 3.497-7.456 5.2-.232.158-.802.095-1.045-.09-3.305-2.516-6.576-5.069-9.512-7.347.193-2.067.382-3.707.496-5.352.17-2.464.202-4.942.455-7.398.336-3.219 3.934-5.018 6.83-3.509.877.457 1.201 1.669.439 2.551-1.037 1.195-2.285 2.202-3.493 3.337"/><path d="M732.378 114.984c-.574.74-1.166 1.471-1.72 2.229-.816 1.115-1.726.948-2.671.217-.963-.743-1.26-1.559-.379-2.627 1.196-1.445 2.329-2.943 3.456-4.441.786-1.045 1.579-.939 2.518-.21.965.746 1.392 1.522.524 2.609-.585.733-1.153 1.482-1.728 2.223m-2.547-4.138c-.604.778-1.215 1.551-1.81 2.336-.767 1.013-1.62.737-2.432.119-.857-.651-1.387-1.435-.56-2.496 1.238-1.593 2.47-3.193 3.718-4.782.793-1.01 1.645-.643 2.43-.009.776.626 1.325 1.37.555 2.38-.628.821-1.267 1.634-1.901 2.452m1.607 6.431c.638-.822 1.282-1.638 1.912-2.467.613-.816 1.316-.77 2.052-.212.746.563 1.741 1.121.963 2.25-1.262 1.833-2.554 3.655-3.982 5.356-.78.932-1.738.363-2.479-.292-.674-.592-1.108-1.285-.383-2.171.656-.807 1.279-1.641 1.917-2.464m-9.346-11.907c.938-.824 1.65-1.574 2.484-2.147 1.134-.778 2.354-.682 3.466.115.766.552 1.075 1.2.33 2.085-1.021 1.209-1.945 2.502-2.927 3.745-1.024 1.292-1.57 1.296-2.92-.008.849-1.208 1.575-2.485-.433-3.79"/></g><g fill="#E51A31" fill-rule="evenodd" clip-rule="evenodd"><path d="M741.012 140.423c.503.358.503.358 2.852-1.413l2.057 1.167c-.475 2.143 1.111 2.893 2.68 3.742-1.067 2.465.876 3.237 2.463 4.191-1.727 2.57.449 4.299 3.234 4.922-2.482 1.741-4.949 3.498-7.456 5.2-.232.158-.802.095-1.045-.09-3.305-2.516-6.576-5.069-9.512-7.347.193-2.067.382-3.707.496-5.352.17-2.464.202-4.942.455-7.398.336-3.219 3.934-5.018 6.83-3.509.877.457 1.201 1.669.44 2.551-1.038 1.194-2.286 2.202-3.494 3.336"/><path d="M755.359 143.369c-.574.74-1.166 1.471-1.72 2.229-.816 1.115-1.726.948-2.671.217-.963-.743-1.26-1.559-.379-2.627 1.196-1.445 2.329-2.943 3.456-4.441.786-1.045 1.579-.939 2.518-.21.965.746 1.392 1.522.524 2.609-.584.733-1.152 1.482-1.728 2.223m-2.547-4.138c-.604.778-1.215 1.551-1.81 2.336-.767 1.013-1.62.737-2.432.119-.857-.651-1.387-1.435-.56-2.496 1.238-1.593 2.47-3.193 3.718-4.782.793-1.01 1.645-.643 2.43-.009.776.626 1.325 1.37.555 2.38-.627.822-1.267 1.634-1.901 2.452m1.607 6.432c.638-.822 1.282-1.638 1.912-2.467.613-.816 1.316-.77 2.052-.212.746.563 1.741 1.121.963 2.25-1.262 1.833-2.554 3.655-3.981 5.356-.78.932-1.738.363-2.479-.292-.674-.592-1.108-1.285-.383-2.171.655-.808 1.278-1.642 1.916-2.464m-9.346-11.908c.938-.824 1.65-1.574 2.484-2.147 1.134-.778 2.355-.682 3.466.115.766.552 1.075 1.2.33 2.085-1.02 1.209-1.945 2.502-2.927 3.745-1.024 1.292-1.57 1.296-2.92-.008.849-1.208 1.575-2.484-.433-3.79"/></g><g fill="#E51A31" fill-rule="evenodd" clip-rule="evenodd"><path d="M766.29 192.203c.398.472.398.472 3.114-.654l1.699 1.644c-.996 1.956.352 3.079 1.657 4.293-1.651 2.12.037 3.354 1.335 4.674-2.316 2.056-.643 4.275 1.898 5.576-2.839 1.064-5.668 2.146-8.521 3.167-.264.095-.8-.108-.988-.349-2.569-3.263-5.098-6.555-7.369-9.495.705-1.953 1.298-3.493 1.82-5.057.782-2.343 1.434-4.734 2.294-7.049 1.131-3.032 5.064-3.873 7.491-1.687.734.662.745 1.917-.214 2.58-1.302.897-2.763 1.56-4.216 2.357"/><path d="M779.442 198.648c-.741.573-1.497 1.132-2.223 1.727-1.07.875-1.908.486-2.641-.458-.746-.961-.829-1.825.291-2.638 1.521-1.1 2.992-2.266 4.458-3.434 1.023-.815 1.765-.513 2.49.427.747.964.966 1.823-.146 2.657-.748.563-1.486 1.146-2.229 1.719m-1.429-4.645c-.778.602-1.565 1.197-2.337 1.809-.995.788-1.753.308-2.384-.494-.667-.845-.983-1.737.084-2.557 1.598-1.232 3.19-2.473 4.797-3.698 1.021-.779 1.753-.211 2.354.599.595.801.94 1.658-.06 2.444-.813.638-1.635 1.265-2.454 1.897m-.055 6.629c.823-.636 1.651-1.264 2.469-1.909.798-.637 1.467-.415 2.039.309.581.733 1.405 1.522.369 2.42-1.681 1.458-3.388 2.899-5.196 4.188-.988.707-1.773-.084-2.327-.904-.504-.742-.751-1.522.173-2.198.837-.617 1.65-1.269 2.473-1.906m-6.066-13.868c1.115-.562 1.992-1.111 2.943-1.456 1.292-.469 2.45-.071 3.326.979.604.726.741 1.431-.202 2.101-1.291.915-2.51 1.935-3.771 2.892-1.315.995-1.845.861-2.825-.739 1.123-.956 2.146-2.01.529-3.777"/></g><g fill="#E51A31" fill-rule="evenodd" clip-rule="evenodd"><path d="M763.404 259.122c.146.599.146.599 3.079.803.255.718.513 1.447.788 2.229-1.764 1.307-1.058 2.913-.431 4.582-2.423 1.161-1.462 3.019-.889 4.779-2.99.807-2.481 3.54-.786 5.837-3.016-.313-6.03-.605-9.04-.964-.278-.033-.667-.454-.729-.753-.845-4.066-1.641-8.14-2.363-11.784 1.502-1.434 2.72-2.548 3.885-3.715 1.744-1.749 3.393-3.599 5.195-5.287 2.364-2.21 6.26-1.209 7.457 1.83.362.92-.188 2.048-1.342 2.214-1.564.221-3.168.164-4.824.229"/><path d="M772.305 270.754c-.919.182-1.845.346-2.76.555-1.349.306-1.925-.416-2.159-1.588-.239-1.192.071-2.003 1.437-2.232 1.852-.307 3.688-.694 5.521-1.087 1.279-.273 1.809.327 2.039 1.493.238 1.196.052 2.062-1.315 2.314-.924.17-1.844.363-2.763.545m.79-4.794c-.965.192-1.934.375-2.897.577-1.242.262-1.707-.506-1.914-1.504-.221-1.054-.106-1.993 1.215-2.251 1.979-.391 3.959-.792 5.942-1.172 1.261-.243 1.663.593 1.841 1.586.175.982.102 1.903-1.143 2.161-1.013.208-2.029.401-3.044.603m-3.004 5.909c1.021-.203 2.042-.396 3.061-.608.998-.214 1.498.282 1.688 1.185.193.915.579 1.988-.749 2.331-2.154.556-4.324 1.084-6.518 1.433-1.199.191-1.55-.866-1.68-1.847-.12-.889.007-1.697 1.135-1.891 1.024-.179 2.042-.4 3.063-.603m.753-15.119c1.249-.006 2.278-.106 3.283.009 1.366.156 2.225 1.029 2.541 2.359.217.918.025 1.611-1.117 1.79-1.565.244-3.109.613-4.666.908-1.621.304-2.035-.052-2.199-1.921 1.432-.354 2.817-.842 2.158-3.145"/></g><g fill="#E51A31" fill-rule="evenodd" clip-rule="evenodd"><path d="M741.198 171.13c.444.428.444.428 3.029-.976.601.47 1.21.946 1.861 1.458-.786 2.05.672 3.025 2.097 4.097-1.42 2.28.388 3.331 1.815 4.509-2.089 2.286-.191 4.318 2.471 5.347-2.712 1.355-5.412 2.727-8.144 4.04-.253.122-.807-.024-1.019-.243-2.896-2.977-5.754-5.987-8.32-8.673.497-2.016.926-3.61 1.282-5.22.533-2.412.932-4.858 1.545-7.25.809-3.133 4.633-4.38 7.274-2.459.8.582.94 1.829.057 2.588-1.202 1.027-2.585 1.839-3.948 2.782"/><path d="M754.952 176.167c-.677.646-1.371 1.282-2.03 1.949-.973.982-1.847.683-2.674-.18-.842-.877-1.015-1.729.014-2.654 1.398-1.252 2.739-2.566 4.075-3.881.933-.917 1.701-.695 2.522.165.844.881 1.151 1.712.133 2.658-.688.639-1.361 1.296-2.04 1.943m-1.906-4.47c-.712.68-1.431 1.354-2.136 2.042-.907.888-1.711.489-2.422-.242-.752-.771-1.159-1.624-.185-2.552 1.461-1.392 2.915-2.793 4.385-4.179.934-.881 1.722-.393 2.404.35.675.734 1.107 1.551.196 2.436-.741.721-1.494 1.43-2.242 2.145m.637 6.599c.753-.719 1.511-1.43 2.257-2.157.727-.717 1.415-.566 2.061.094.654.668 1.556 1.367.619 2.368-1.519 1.626-3.066 3.237-4.73 4.708-.909.806-1.772.102-2.409-.656-.578-.685-.905-1.434-.057-2.204.767-.701 1.507-1.434 2.259-2.153m-7.481-13.16c1.05-.676 1.865-1.312 2.774-1.755 1.236-.602 2.43-.327 3.411.626.675.659.886 1.346.018 2.111-1.188 1.045-2.294 2.187-3.448 3.271-1.205 1.126-1.745 1.049-2.887-.441 1.018-1.068 1.924-2.223.132-3.812"/></g><g fill="#E51A31" fill-rule="evenodd" clip-rule="evenodd"><path d="M709.59 200.202c.444.428.444.428 3.029-.976.601.47 1.21.946 1.861 1.458-.786 2.05.672 3.025 2.097 4.097-1.42 2.28.388 3.331 1.815 4.509-2.089 2.286-.191 4.318 2.471 5.347-2.712 1.355-5.412 2.727-8.144 4.04-.253.121-.807-.025-1.019-.243-2.896-2.977-5.754-5.987-8.32-8.673.497-2.016.926-3.61 1.282-5.22.533-2.412.932-4.858 1.545-7.25.809-3.133 4.633-4.38 7.274-2.459.8.582.94 1.829.057 2.588-1.202 1.026-2.585 1.838-3.948 2.782"/><path d="M723.344 205.238c-.677.646-1.371 1.282-2.03 1.949-.973.982-1.847.683-2.674-.18-.842-.877-1.015-1.729.014-2.654 1.398-1.252 2.739-2.566 4.075-3.881.933-.917 1.701-.695 2.522.165.844.881 1.151 1.712.133 2.658-.689.639-1.362 1.296-2.04 1.943m-1.906-4.469c-.712.68-1.431 1.354-2.136 2.042-.907.888-1.711.489-2.422-.242-.752-.771-1.159-1.625-.185-2.552 1.461-1.392 2.915-2.792 4.385-4.179.934-.881 1.722-.393 2.404.35.675.734 1.107 1.551.196 2.436-.742.721-1.495 1.43-2.242 2.145m.636 6.598c.753-.719 1.511-1.43 2.257-2.157.727-.717 1.415-.566 2.061.094.654.668 1.556 1.367.619 2.368-1.519 1.626-3.066 3.237-4.73 4.708-.909.806-1.773.102-2.409-.656-.578-.685-.905-1.435-.057-2.204.768-.701 1.507-1.434 2.259-2.153m-7.48-13.159c1.05-.676 1.865-1.312 2.774-1.755 1.236-.602 2.43-.327 3.411.626.675.659.886 1.346.018 2.111-1.188 1.045-2.294 2.187-3.448 3.271-1.205 1.126-1.745 1.049-2.887-.441 1.017-1.068 1.924-2.224.132-3.812"/></g><g fill="#E51A31" fill-rule="evenodd" clip-rule="evenodd"><path d="M766.325 227.057c.241.415.241.415 2.477-.086.35.479.704.966 1.083 1.488-1.024 1.368-.141 2.409.698 3.515-1.549 1.406-.418 2.577.401 3.763-2.052 1.268-1.063 3.193.712 4.53-2.319.438-4.634.89-6.958 1.292-.216.037-.6-.19-.713-.399-1.535-2.846-3.035-5.708-4.385-8.266.801-1.404 1.462-2.506 2.07-3.636.913-1.692 1.732-3.44 2.7-5.101 1.273-2.174 4.401-2.294 5.972-.294.475.606.315 1.57-.509 1.951-1.117.513-2.326.827-3.548 1.243"/><path d="M775.554 233.756c-.644.34-1.3.668-1.935 1.028-.938.529-1.528.118-1.964-.704-.443-.836-.393-1.51.575-1.985 1.312-.641 2.598-1.339 3.878-2.039.894-.489 1.422-.159 1.854.66.444.839.498 1.527-.467 2.019-.651.332-1.296.68-1.941 1.021m-.477-3.753c-.678.357-1.359.709-2.033 1.075-.869.472-1.387.002-1.763-.696-.399-.737-.522-1.463.404-1.95 1.391-.732 2.777-1.471 4.174-2.196.886-.461 1.372.072 1.726.774.349.693.499 1.397-.372 1.866-.708.38-1.423.75-2.136 1.127m-.928 5.077c.718-.378 1.437-.749 2.149-1.135.697-.382 1.181-.123 1.523.509.348.64.874 1.355-.04 1.905-1.483.895-2.985 1.771-4.545 2.52-.853.41-1.349-.301-1.664-1.004-.287-.637-.373-1.267.427-1.663.726-.362 1.435-.754 2.15-1.132m-2.801-11.448c.931-.282 1.677-.585 2.451-.724 1.055-.188 1.89.272 2.422 1.195.365.637.377 1.196-.437 1.585-1.112.53-2.183 1.149-3.277 1.716-1.143.587-1.53.414-2.069-.944.99-.584 1.914-1.256.91-2.828"/></g><g fill="#E51A31" fill-rule="evenodd" clip-rule="evenodd"><path d="M753.048 291.088c.103.469.103.469 2.384.679.186.564.373 1.135.573 1.749-1.395.987-.873 2.249-.415 3.559-1.905.862-1.189 2.324-.773 3.705-2.343.576-1.993 2.712-.715 4.53-2.341-.296-4.683-.576-7.019-.908-.217-.031-.512-.365-.556-.599-.587-3.18-1.135-6.364-1.634-9.213 1.193-1.09 2.161-1.936 3.088-2.824 1.389-1.33 2.705-2.742 4.136-4.025 1.879-1.678 4.893-.831 5.773 1.555a1.276 1.276 0 0 1-1.083 1.7c-1.221.144-2.468.071-3.759.092"/><path d="M759.772 300.297c-.717.126-1.441.237-2.157.384-1.055.215-1.491-.357-1.652-1.273-.165-.932.09-1.558 1.157-1.712 1.445-.207 2.883-.477 4.316-.75 1-.19 1.402.285 1.562 1.197.165.935.005 1.606-1.064 1.777-.722.118-1.442.252-2.162.377m.7-3.717c-.754.132-1.511.257-2.265.398-.972.182-1.32-.424-1.464-1.204-.153-.824-.047-1.553.984-1.732 1.548-.269 3.095-.547 4.647-.808.984-.167 1.283.49 1.404 1.267.119.767.046 1.483-.928 1.662-.79.144-1.583.277-2.378.417m-2.443 4.546c.8-.14 1.598-.272 2.394-.42.781-.149 1.161.245 1.294.952.134.715.415 1.557-.623 1.8-1.686.395-3.386.768-5.1 1.001-.938.129-1.19-.701-1.275-1.466-.077-.694.034-1.32.917-1.452.802-.12 1.596-.274 2.393-.415m.851-11.754c.973.017 1.775-.042 2.555.064 1.062.145 1.715.839 1.938 1.881.152.718-.009 1.254-.901 1.374-1.222.163-2.431.423-3.647.626-1.268.208-1.583-.076-1.679-1.534 1.121-.252 2.207-.608 1.734-2.411"/></g><g fill="#E51A31" fill-rule="evenodd" clip-rule="evenodd"><path d="M728.192 348.456c-.111.467-.111.467 1.854 1.644l-.24 1.824c-1.684.286-1.76 1.649-1.914 3.029-2.091-.047-2.078 1.581-2.301 3.005-2.361-.495-2.971 1.582-2.604 3.774-1.982-1.28-3.972-2.546-5.935-3.856-.182-.122-.304-.55-.242-.78.848-3.121 1.732-6.228 2.515-9.013 1.548-.467 2.786-.81 4.007-1.21 1.827-.598 3.625-1.301 5.47-1.839 2.42-.699 4.771 1.368 4.532 3.9a1.277 1.277 0 0 1-1.712 1.064c-1.164-.397-2.257-1.002-3.43-1.542"/><path d="M730.269 359.668c-.7-.197-1.402-.41-2.111-.587-1.044-.263-1.189-.967-.938-1.863.255-.912.756-1.365 1.784-1.043 1.393.439 2.806.818 4.216 1.192.984.261 1.141.864.89 1.755-.256.914-.69 1.45-1.729 1.142-.703-.206-1.409-.397-2.112-.596m2.239-3.048c-.736-.207-1.474-.422-2.214-.621-.955-.256-1.007-.954-.799-1.719.219-.81.63-1.421 1.637-1.135 1.512.427 3.027.846 4.539 1.282.96.275.944.997.718 1.75-.225.743-.601 1.357-1.556 1.097-.775-.213-1.549-.436-2.325-.654m-4.17 3.042c.781.22 1.559.446 2.341.658.769.204.94.724.754 1.418-.188.703-.3 1.583-1.341 1.353-1.691-.373-3.385-.772-5.03-1.304-.901-.29-.77-1.147-.516-1.874.231-.66.602-1.176 1.455-.912.774.237 1.558.442 2.337.661m5.854-10.229c.869.437 1.618.73 2.275 1.164.893.59 1.183 1.499.933 2.534-.174.714-.551 1.127-1.407.848-1.172-.381-2.374-.67-3.559-1.013-1.232-.361-1.394-.754-.85-2.109 1.121.257 2.255.407 2.608-1.424"/></g><g fill="#E51A31" fill-rule="evenodd" clip-rule="evenodd"><path d="M743.836 319.44c-.11.468-.11.468 1.856 1.644l-.24 1.824c-1.684.287-1.76 1.65-1.914 3.029-2.091-.047-2.078 1.581-2.3 3.005-2.361-.494-2.971 1.583-2.605 3.774-1.982-1.279-3.973-2.545-5.935-3.855-.183-.122-.304-.55-.242-.78.847-3.121 1.73-6.229 2.513-9.014 1.548-.467 2.786-.811 4.006-1.21 1.828-.599 3.625-1.302 5.471-1.84 2.42-.7 4.772 1.367 4.532 3.899-.073.767-.852 1.355-1.712 1.064-1.164-.395-2.257-1-3.43-1.54"/><path d="M745.914 330.653c-.7-.197-1.402-.41-2.111-.587-1.044-.262-1.189-.967-.938-1.863.255-.912.755-1.365 1.784-1.042 1.393.439 2.805.817 4.216 1.191.983.261 1.141.864.89 1.755-.256.915-.69 1.45-1.729 1.142-.702-.207-1.409-.398-2.112-.596m2.239-3.05c-.737-.207-1.474-.421-2.215-.621-.954-.256-1.007-.954-.799-1.719.219-.81.63-1.42 1.637-1.136 1.513.427 3.027.846 4.539 1.282.96.275.944.997.718 1.75-.224.743-.6 1.357-1.556 1.097-.774-.211-1.547-.434-2.324-.653m-4.17 3.044c.782.22 1.559.446 2.341.657.769.203.94.723.755 1.418-.19.703-.3 1.583-1.341 1.353-1.691-.373-3.385-.771-5.031-1.303-.9-.29-.769-1.147-.516-1.874.231-.66.602-1.176 1.455-.912.775.238 1.559.442 2.337.661m5.853-10.23c.87.436 1.619.73 2.275 1.164.895.59 1.184 1.499.934 2.534-.174.713-.551 1.126-1.407.848-1.172-.381-2.374-.67-3.559-1.013-1.232-.361-1.395-.753-.85-2.109 1.12.257 2.253.407 2.607-1.424"/></g><g fill="#E51A31" fill-rule="evenodd" clip-rule="evenodd"><path d="M736.278 245.923c.2.345.2.345 2.058-.071.291.398.587.803.901 1.237-.852 1.137-.117 2.002.58 2.921-1.288 1.168-.347 2.143.334 3.129-1.705 1.053-.884 2.654.592 3.766-1.928.363-3.853.74-5.784 1.074-.18.031-.499-.158-.592-.331-1.277-2.366-2.524-4.745-3.646-6.872.667-1.167 1.216-2.083 1.722-3.023.759-1.407 1.44-2.859 2.245-4.24 1.057-1.807 3.659-1.907 4.964-.244a1.06 1.06 0 0 1-.424 1.622c-.929.424-1.935.686-2.95 1.032"/><path d="M743.949 251.492c-.535.282-1.08.556-1.608.854-.779.44-1.271.099-1.632-.585-.369-.695-.327-1.255.477-1.65a80 80 0 0 0 3.224-1.695c.742-.407 1.182-.132 1.541.548.369.698.413 1.27-.388 1.678-.542.277-1.077.566-1.614.85m-.396-3.12c-.562.297-1.129.589-1.689.893-.722.393-1.152.002-1.465-.578-.332-.613-.435-1.216.336-1.622 1.155-.608 2.309-1.223 3.47-1.826.735-.384 1.141.06 1.434.643.29.576.415 1.161-.309 1.552-.589.317-1.184.625-1.777.938m-.771 4.22c.597-.314 1.194-.623 1.787-.943.58-.318.982-.103 1.267.422.288.532.727 1.126-.033 1.583-1.233.744-2.482 1.473-3.779 2.095-.708.341-1.12-.251-1.383-.835-.238-.529-.31-1.053.354-1.382.603-.3 1.193-.625 1.787-.94m-2.329-9.516c.773-.235 1.394-.487 2.037-.602.877-.157 1.571.226 2.014.993.304.53.313.995-.362 1.317-.925.441-1.815.956-2.725 1.426-.95.488-1.273.344-1.721-.785.823-.484 1.592-1.043.757-2.349"/></g><g fill="#E51A31" fill-rule="evenodd" clip-rule="evenodd"><path d="M695.237 127.084c.332.332.332.332 2.316-.696.45.365.908.735 1.394 1.134-.626 1.546.468 2.309 1.534 3.145-1.112 1.713.247 2.538 1.317 3.454-1.621 1.708-.208 3.28 1.801 4.1-2.081.991-4.155 1.996-6.248 2.952-.195.089-.615-.029-.773-.199-2.159-2.305-4.289-4.635-6.2-6.714.408-1.525.757-2.73 1.052-3.95.439-1.826.779-3.678 1.28-5.489.657-2.368 3.584-3.262 5.565-1.764.599.454.688 1.404.004 1.969-.927.764-1.992 1.362-3.042 2.058"/><path d="M705.619 131.113c-.523.48-1.06.955-1.571 1.452-.753.733-1.413.492-2.029-.176-.627-.679-.746-1.328.049-2.017 1.079-.932 2.12-1.911 3.153-2.891.724-.684 1.304-.503 1.917.162.629.682.848 1.318.061 2.022-.533.477-1.055.966-1.58 1.448m-1.385-3.425c-.549.505-1.105 1.007-1.65 1.52-.703.662-1.309.347-1.838-.219-.562-.598-.859-1.25-.104-1.942 1.131-1.038 2.256-2.082 3.396-3.114.721-.656 1.313-.273 1.82.302.503.567.818 1.194.114 1.855-.574.537-1.158 1.066-1.738 1.598m.389 5.025c.584-.536 1.17-1.066 1.748-1.607.563-.535 1.083-.411 1.565.101.487.517 1.163 1.062.436 1.808-1.178 1.215-2.378 2.416-3.665 3.512-.702.599-1.346.051-1.82-.534-.43-.53-.668-1.104-.012-1.677.594-.521 1.167-1.068 1.748-1.603m-5.495-10.113c.809-.498 1.438-.969 2.134-1.293.951-.441 1.854-.213 2.584.524.505.511.654 1.036-.016 1.605-.919.778-1.775 1.629-2.669 2.437-.933.838-1.341.772-2.188-.376.79-.797 1.495-1.663.155-2.897"/></g><g fill="#E51A31" fill-rule="evenodd" clip-rule="evenodd"><path d="M740.426 216.324c.241.415.241.415 2.477-.086l1.083 1.488c-1.024 1.368-.141 2.409.698 3.515-1.549 1.406-.418 2.577.401 3.763-2.052 1.268-1.064 3.193.712 4.53-2.319.438-4.634.89-6.958 1.292-.216.037-.6-.19-.713-.399-1.535-2.846-3.035-5.708-4.385-8.266.801-1.404 1.462-2.506 2.07-3.636.913-1.692 1.732-3.44 2.7-5.101 1.273-2.174 4.401-2.294 5.972-.294.475.606.314 1.57-.509 1.951-1.118.512-2.327.826-3.548 1.243"/><path d="M749.654 223.023c-.645.34-1.3.668-1.935 1.028-.938.529-1.528.118-1.964-.704-.443-.836-.393-1.51.575-1.985 1.312-.641 2.598-1.339 3.878-2.039.894-.489 1.422-.159 1.853.66.444.839.498 1.527-.467 2.019-.65.331-1.294.68-1.94 1.021m-.476-3.753c-.678.357-1.359.709-2.033 1.075-.869.472-1.387.002-1.763-.696-.399-.737-.522-1.463.404-1.95 1.391-.732 2.777-1.471 4.174-2.196.886-.462 1.372.072 1.725.774.349.693.499 1.397-.372 1.866-.708.38-1.422.75-2.135 1.127m-.928 5.077c.718-.378 1.436-.749 2.149-1.135.697-.382 1.181-.123 1.523.509.348.64.874 1.355-.04 1.905-1.483.895-2.985 1.771-4.545 2.52-.853.41-1.349-.301-1.664-1.004-.287-.637-.373-1.267.427-1.663.725-.362 1.434-.754 2.15-1.132m-2.802-11.448c.931-.282 1.677-.585 2.451-.724 1.055-.188 1.89.273 2.422 1.195.365.637.377 1.196-.437 1.585-1.112.53-2.183 1.149-3.277 1.716-1.143.587-1.53.414-2.069-.944.99-.584 1.915-1.257.91-2.828"/></g><g fill="#E51A31" fill-rule="evenodd" clip-rule="evenodd"><path d="M710.662 234.054c.241.415.241.415 2.477-.086.35.479.704.966 1.083 1.488-1.024 1.368-.141 2.409.698 3.515-1.549 1.406-.418 2.577.401 3.763-2.052 1.268-1.064 3.193.712 4.53-2.319.438-4.634.89-6.958 1.292-.216.037-.6-.19-.713-.399-1.535-2.846-3.035-5.708-4.385-8.266.801-1.404 1.462-2.506 2.07-3.636.913-1.692 1.732-3.44 2.7-5.101 1.273-2.174 4.401-2.294 5.972-.294.475.606.315 1.57-.509 1.951-1.117.512-2.326.826-3.548 1.243"/><path d="M719.891 240.752c-.644.34-1.3.669-1.935 1.028-.938.529-1.528.118-1.964-.704-.443-.837-.393-1.51.575-1.985 1.312-.641 2.598-1.339 3.878-2.039.894-.489 1.422-.159 1.854.66.444.839.498 1.527-.467 2.019-.651.333-1.296.681-1.941 1.021m-.477-3.753c-.678.357-1.359.709-2.033 1.075-.869.472-1.387.002-1.763-.696-.399-.737-.522-1.463.404-1.95 1.391-.732 2.777-1.471 4.174-2.196.886-.461 1.372.072 1.726.774.349.693.499 1.397-.372 1.866-.708.38-1.423.751-2.136 1.127m-.928 5.078c.718-.379 1.437-.75 2.149-1.135.697-.382 1.181-.123 1.523.509.348.64.874 1.355-.04 1.905-1.483.895-2.985 1.771-4.545 2.52-.852.41-1.349-.301-1.664-1.004-.287-.637-.373-1.267.427-1.663.725-.362 1.435-.754 2.15-1.132m-2.801-11.448c.931-.282 1.677-.585 2.451-.724 1.055-.188 1.89.272 2.422 1.195.365.637.377 1.196-.436 1.585-1.112.53-2.183 1.149-3.277 1.716-1.143.587-1.53.414-2.069-.944.989-.584 1.913-1.257.909-2.828"/></g><g fill="#E51A31" fill-rule="evenodd" clip-rule="evenodd"><path d="M685.756 291.335c.103.469.103.469 2.384.675.187.563.375 1.135.576 1.747-1.393.989-.87 2.25-.409 3.56-1.905.865-1.187 2.326-.768 3.706-2.341.58-1.989 2.715-.707 4.531-2.343-.293-4.685-.569-7.021-.897-.217-.031-.513-.364-.557-.598-.592-3.179-1.145-6.363-1.648-9.211 1.192-1.092 2.158-1.939 3.083-2.829 1.387-1.332 2.701-2.746 4.13-4.031 1.876-1.681 4.893-.839 5.776 1.545a1.278 1.278 0 0 1-1.081 1.702c-1.221.147-2.468.076-3.758.1"/><path d="M692.494 300.534c-.718.126-1.442.239-2.157.387-1.054.217-1.491-.354-1.654-1.271-.167-.932.088-1.558 1.154-1.714 1.445-.208 2.883-.48 4.315-.756 1-.192 1.402.283 1.563 1.195.166.935.007 1.606-1.061 1.779-.721.118-1.441.253-2.16.38m.694-3.719c-.754.133-1.511.26-2.264.402-.973.184-1.321-.422-1.466-1.202-.155-.824-.05-1.553.981-1.733 1.548-.272 3.094-.552 4.645-.815.985-.168 1.285.488 1.407 1.264.12.767.048 1.483-.925 1.663-.791.146-1.585.281-2.378.421m-2.436 4.551c.8-.141 1.598-.274 2.393-.424.781-.15 1.162.244 1.295.95.136.715.418 1.557-.62 1.801-1.686.398-3.384.774-5.098 1.009-.938.13-1.192-.699-1.277-1.464-.079-.694.032-1.321.915-1.453.8-.122 1.595-.278 2.392-.419m.832-11.757c.973.016 1.775-.045 2.556.06 1.062.143 1.716.837 1.94 1.878.153.718-.007 1.254-.9 1.375-1.221.165-2.429.427-3.645.632-1.268.21-1.584-.074-1.682-1.532 1.122-.252 2.207-.609 1.731-2.413"/></g><g fill="#E51A31" fill-rule="evenodd" clip-rule="evenodd"><path d="M653.851 346.681c.086.392.086.392 1.992.564l.482 1.461c-1.165.827-.728 1.881-.343 2.976-1.593.723-.991 1.945-.643 3.098-1.956.484-1.662 2.27-.591 3.788-1.958-.245-3.916-.476-5.869-.75-.181-.025-.428-.304-.465-.5-.495-2.658-.957-5.319-1.377-7.7.996-.913 1.804-1.621 2.577-2.365 1.159-1.114 2.258-2.295 3.452-3.37 1.568-1.405 4.09-.702 4.829 1.292a1.067 1.067 0 0 1-.904 1.422c-1.019.124-2.062.065-3.14.084"/><path d="M659.483 354.371c-.6.106-1.206.2-1.804.324-.881.181-1.246-.296-1.383-1.062-.14-.779.074-1.302.965-1.433a77 77 0 0 0 3.607-.632c.837-.16 1.173.237 1.308.999.139.782.006 1.342-.888 1.487-.603.098-1.204.211-1.805.317m.58-3.109c-.631.111-1.264.217-1.893.336-.814.154-1.104-.353-1.226-1.004-.13-.69-.042-1.299.82-1.449 1.294-.228 2.586-.461 3.883-.681.824-.141 1.074.408 1.177 1.057.101.641.04 1.24-.773 1.39-.66.122-1.324.234-1.988.351m-2.036 3.804c.668-.118 1.335-.229 2.001-.354.652-.126.971.204 1.082.794.113.598.35 1.301-.519 1.506-1.409.333-2.828.647-4.262.844-.783.109-.996-.584-1.067-1.224-.066-.581.027-1.104.765-1.215.669-.102 1.334-.232 2-.351m.696-9.828c.813.013 1.484-.037 2.137.051.887.12 1.434.7 1.622 1.57.128.601-.006 1.049-.753 1.149-1.02.138-2.03.357-3.047.528-1.06.175-1.324-.061-1.405-1.28.936-.211 1.844-.51 1.446-2.018"/></g><g fill="#E51A31" fill-rule="evenodd" clip-rule="evenodd"><path d="M713.682 302.553c.061.476.061.476 2.315.883l.42 1.792c-1.476.862-1.065 2.165-.723 3.51-1.974.693-1.387 2.212-1.093 3.624-2.383.371-2.221 2.529-1.104 4.451-2.307-.498-4.615-.98-6.913-1.513-.213-.05-.479-.408-.502-.645-.309-3.219-.578-6.439-.828-9.32 1.284-.983 2.321-1.741 3.321-2.546 1.499-1.205 2.933-2.497 4.47-3.651 2.018-1.509 4.947-.404 5.617 2.049a1.278 1.278 0 0 1-1.228 1.6c-1.229.037-2.465-.143-3.752-.234"/><path d="M719.582 312.311c-.727.063-1.458.111-2.183.195-1.069.123-1.454-.485-1.536-1.412-.084-.943.225-1.544 1.301-1.605 1.459-.08 2.914-.224 4.366-.372 1.013-.103 1.371.406 1.451 1.328.083.946-.135 1.601-1.215 1.679-.728.054-1.457.125-2.184.187m1.019-3.643c-.763.066-1.527.125-2.291.2-.984.097-1.278-.537-1.354-1.327-.081-.835.088-1.551 1.131-1.64 1.565-.134 3.131-.276 4.699-.402.995-.081 1.236.6 1.289 1.384.052.774-.083 1.481-1.068 1.575-.8.076-1.603.14-2.406.21m-2.828 4.317c.809-.069 1.614-.132 2.422-.211.79-.081 1.136.345 1.206 1.06.071.725.278 1.588-.777 1.74-1.715.248-3.439.472-5.167.555-.945.047-1.126-.802-1.143-1.571-.017-.698.149-1.312 1.04-1.367.807-.049 1.613-.135 2.419-.206m1.868-11.636c.967.102 1.773.112 2.539.286 1.045.237 1.636.985 1.768 2.042.089.729-.117 1.249-1.018 1.29-1.232.057-2.458.211-3.687.308-1.281.097-1.571-.213-1.54-1.674 1.139-.154 2.252-.414 1.938-2.252"/></g><g fill="#E51A31" fill-rule="evenodd" clip-rule="evenodd"><path d="M709.018 327.64c.06.476.06.476 2.315.883l.42 1.792c-1.476.862-1.065 2.165-.723 3.51-1.974.693-1.387 2.212-1.093 3.624-2.383.371-2.221 2.529-1.104 4.451-2.307-.498-4.615-.98-6.913-1.513-.213-.05-.478-.408-.502-.645-.309-3.219-.578-6.439-.828-9.32 1.284-.983 2.321-1.741 3.321-2.546 1.499-1.205 2.933-2.497 4.47-3.651 2.018-1.509 4.947-.404 5.617 2.049a1.278 1.278 0 0 1-1.227 1.6c-1.23.038-2.466-.143-3.753-.234"/><path d="M714.918 337.398c-.727.063-1.458.111-2.183.195-1.069.123-1.454-.485-1.536-1.412-.084-.943.225-1.544 1.301-1.605 1.459-.08 2.914-.224 4.366-.372 1.013-.103 1.371.406 1.451 1.328.083.946-.135 1.601-1.215 1.679-.728.054-1.458.125-2.184.187m1.018-3.643c-.763.066-1.527.125-2.291.2-.984.097-1.278-.537-1.354-1.327-.081-.835.088-1.551 1.131-1.64 1.565-.134 3.131-.276 4.699-.402.995-.081 1.236.6 1.289 1.384.052.774-.083 1.481-1.068 1.575-.799.077-1.602.14-2.406.21m-2.827 4.318c.809-.069 1.614-.132 2.422-.211.79-.081 1.136.345 1.206 1.061.071.725.278 1.588-.777 1.74-1.715.248-3.44.472-5.167.555-.945.047-1.126-.802-1.144-1.571-.017-.698.149-1.312 1.04-1.367.808-.051 1.614-.136 2.42-.207m1.868-11.637c.967.102 1.772.112 2.539.286 1.045.237 1.636.985 1.768 2.042.089.729-.117 1.249-1.018 1.29-1.231.057-2.458.211-3.686.308-1.281.097-1.571-.213-1.54-1.674 1.138-.153 2.251-.414 1.937-2.252"/></g><g fill="#E51A31" fill-rule="evenodd" clip-rule="evenodd"><path d="M679.836 381.037c-.105.468-.105.468 1.875 1.62l-.217 1.827c-1.681.308-1.739 1.672-1.876 3.053-2.092-.022-2.059 1.607-2.263 3.034-2.367-.464-2.951 1.62-2.557 3.807-1.999-1.255-4.004-2.496-5.982-3.78-.184-.12-.311-.547-.252-.777.808-3.131 1.652-6.25 2.4-9.044 1.542-.486 2.776-.845 3.99-1.26 1.82-.621 3.608-1.347 5.447-1.907 2.411-.73 4.788 1.308 4.581 3.842a1.277 1.277 0 0 1-1.699 1.085c-1.168-.384-2.268-.976-3.447-1.5"/><path d="M682.054 392.223c-.704-.188-1.408-.393-2.118-.562-1.047-.249-1.201-.952-.963-1.851.243-.915.738-1.375 1.771-1.065 1.399.422 2.816.783 4.231 1.139.987.249 1.15.85.911 1.744-.245.918-.673 1.458-1.715 1.164-.703-.198-1.413-.38-2.117-.569m2.2-3.077c-.739-.198-1.479-.403-2.222-.593-.959-.245-1.018-.941-.82-1.708.209-.812.612-1.429 1.622-1.156 1.518.408 3.038.808 4.555 1.225.963.263.958.985.74 1.74-.216.745-.583 1.364-1.542 1.116-.777-.202-1.554-.416-2.333-.624m-4.13 3.094c.783.211 1.562.426 2.348.629.771.193.95.712.772 1.408-.181.706-.28 1.587-1.324 1.37-1.696-.352-3.394-.73-5.047-1.24-.904-.279-.785-1.138-.539-1.867.223-.662.589-1.183 1.444-.93.777.226 1.563.421 2.346.63m5.724-10.302c.875.425 1.628.71 2.29 1.135.901.579 1.201 1.484.965 2.523-.165.715-.536 1.134-1.396.866-1.178-.367-2.383-.64-3.57-.968-1.238-.346-1.404-.737-.877-2.1 1.121.244 2.257.379 2.588-1.456"/></g><g fill="#E51A31" fill-rule="evenodd" clip-rule="evenodd"><path d="M659.048 401.107c-.106.468-.106.468 1.875 1.62-.069.59-.14 1.188-.217 1.827-1.681.308-1.739 1.672-1.876 3.053-2.092-.021-2.059 1.607-2.263 3.034-2.367-.465-2.951 1.619-2.557 3.807-1.999-1.255-4.004-2.496-5.982-3.78-.184-.12-.31-.548-.252-.777.808-3.132 1.652-6.25 2.4-9.044 1.542-.486 2.776-.845 3.99-1.26 1.82-.621 3.608-1.347 5.447-1.907 2.411-.73 4.788 1.308 4.581 3.842a1.276 1.276 0 0 1-1.699 1.085c-1.168-.384-2.268-.975-3.447-1.5"/><path d="M661.266 412.293c-.704-.189-1.408-.394-2.118-.562-1.047-.249-1.201-.951-.963-1.851.243-.915.738-1.376 1.771-1.065 1.399.422 2.816.783 4.231 1.139.987.249 1.15.85.911 1.744-.245.918-.673 1.459-1.715 1.164-.703-.197-1.413-.381-2.117-.569m2.2-3.077c-.739-.198-1.478-.403-2.222-.594-.959-.244-1.018-.94-.82-1.708.209-.812.612-1.429 1.622-1.155 1.518.407 3.038.808 4.555 1.225.963.264.958.985.74 1.74-.216.745-.583 1.364-1.542 1.116-.778-.202-1.554-.415-2.333-.624m-4.13 3.094c.783.211 1.562.427 2.348.629.771.193.95.712.772 1.408-.181.705-.28 1.588-1.324 1.37-1.696-.353-3.394-.729-5.047-1.24-.904-.278-.785-1.138-.539-1.867.223-.662.589-1.183 1.444-.931.777.228 1.563.423 2.346.631m5.724-10.302c.875.426 1.628.711 2.29 1.135.901.579 1.201 1.484.965 2.522-.165.716-.536 1.135-1.396.866-1.178-.367-2.383-.64-3.57-.968-1.238-.347-1.404-.737-.877-2.1 1.121.245 2.256.38 2.588-1.455"/></g><g fill="#E51A31" fill-rule="evenodd" clip-rule="evenodd"><path d="M697.425 356.997c-.058.476-.058.476 2.028 1.423-.01.594-.019 1.195-.031 1.84-1.642.475-1.562 1.838-1.56 3.226-2.083.189-1.887 1.806-1.946 3.246-2.401-.224-2.772 1.909-2.161 4.045-2.114-1.048-4.234-2.081-6.332-3.16-.194-.101-.364-.513-.329-.748.489-3.197 1.016-6.384 1.478-9.239 1.486-.639 2.678-1.12 3.844-1.655 1.748-.801 3.455-1.703 5.228-2.446 2.325-.969 4.896.82 4.944 3.362a1.276 1.276 0 0 1-1.581 1.25c-1.202-.263-2.357-.741-3.582-1.144"/><path d="M700.757 367.903c-.72-.117-1.441-.25-2.164-.346-1.067-.142-1.291-.826-1.144-1.745.149-.935.596-1.442 1.654-1.238 1.434.28 2.88.496 4.324.709 1.007.148 1.229.729 1.082 1.643-.151.938-.522 1.519-1.589 1.331-.719-.127-1.443-.237-2.163-.354m1.879-3.283c-.755-.123-1.511-.253-2.269-.367-.979-.146-1.108-.833-.988-1.617.126-.829.465-1.483 1.498-1.313 1.551.253 3.104.498 4.654.761.985.165 1.053.884.911 1.657-.139.763-.442 1.416-1.421 1.265-.794-.123-1.588-.257-2.385-.386m-3.798 3.494c.801.131 1.598.267 2.4.389.785.115 1.017.613.909 1.324-.108.72-.119 1.607-1.18 1.497-1.724-.18-3.45-.384-5.146-.727-.928-.186-.896-1.053-.725-1.804.155-.681.467-1.236 1.344-1.07.796.148 1.599.262 2.398.391m4.659-10.826c.912.335 1.691.543 2.392.898.955.485 1.345 1.356 1.214 2.413-.092.728-.419 1.182-1.302 1.002-1.208-.247-2.436-.397-3.65-.604-1.266-.22-1.471-.591-1.083-2 1.141.13 2.284.15 2.429-1.709"/></g><g fill="#E51A31" fill-rule="evenodd" clip-rule="evenodd"><path d="M678.044 324.258c.061.476.061.476 2.315.883l.42 1.792c-1.476.862-1.065 2.165-.723 3.51-1.974.693-1.387 2.212-1.093 3.624-2.383.371-2.221 2.529-1.104 4.451-2.307-.498-4.615-.98-6.913-1.513-.213-.05-.479-.408-.502-.645-.309-3.219-.578-6.439-.828-9.32 1.284-.983 2.321-1.741 3.321-2.546 1.499-1.205 2.933-2.497 4.47-3.651 2.018-1.509 4.947-.404 5.617 2.049a1.278 1.278 0 0 1-1.227 1.6c-1.23.038-2.466-.143-3.753-.234"/><path d="M683.944 334.017c-.727.063-1.458.111-2.183.195-1.069.123-1.454-.485-1.536-1.412-.084-.943.225-1.544 1.301-1.605 1.459-.08 2.914-.224 4.366-.372 1.013-.103 1.371.406 1.451 1.328.083.946-.135 1.601-1.215 1.679-.728.053-1.457.124-2.184.187m1.019-3.643c-.763.066-1.527.125-2.291.2-.984.097-1.278-.537-1.354-1.327-.081-.835.088-1.551 1.131-1.64 1.565-.134 3.131-.276 4.699-.402.995-.081 1.236.6 1.289 1.384.052.774-.083 1.481-1.068 1.575-.8.076-1.602.14-2.406.21m-2.827 4.317c.809-.069 1.614-.132 2.422-.21.79-.081 1.136.345 1.206 1.06.071.725.278 1.588-.777 1.74-1.715.247-3.439.472-5.167.555-.945.047-1.126-.802-1.143-1.571-.017-.698.149-1.312 1.04-1.367.806-.051 1.612-.136 2.419-.207m1.867-11.637c.967.102 1.773.112 2.539.286 1.045.237 1.636.985 1.768 2.042.089.729-.117 1.249-1.018 1.29-1.232.057-2.458.211-3.687.308-1.281.097-1.571-.213-1.54-1.674 1.139-.153 2.252-.413 1.938-2.252"/></g><g fill="#E51A31" fill-rule="evenodd" clip-rule="evenodd"><path d="M718.211 271.495c.18.534.18.534 2.868.484l.896 1.966c-1.5 1.332-.73 2.738-.024 4.207-2.112 1.252-1.088 2.866-.425 4.423-2.658.975-1.976 3.422-.248 5.378-2.771-.043-5.54-.067-8.308-.153-.257-.008-.644-.359-.726-.627-1.096-3.635-2.146-7.28-3.098-10.54 1.253-1.426 2.273-2.539 3.238-3.694 1.449-1.732 2.804-3.549 4.308-5.232 1.976-2.2 5.604-1.602 6.938 1.069.404.809-.008 1.88-1.044 2.124-1.407.328-2.872.404-4.375.595"/><path d="M727.248 281.374c-.821.239-1.652.462-2.469.727-1.203.387-1.785-.225-2.093-1.273-.312-1.066-.096-1.829 1.13-2.147 1.66-.428 3.302-.928 4.94-1.432 1.143-.351 1.673.152 1.977 1.195.312 1.07.212 1.874-1.013 2.212-.826.229-1.649.478-2.472.718m.336-4.429c-.863.251-1.731.495-2.592.757-1.11.338-1.596-.325-1.864-1.216-.285-.942-.256-1.807.925-2.148 1.773-.514 3.541-1.038 5.318-1.543 1.127-.322 1.56.406 1.803 1.297.237.878.244 1.724-.868 2.059-.904.271-1.814.529-2.722.794m-2.264 5.621c.915-.267 1.829-.524 2.74-.8.893-.275 1.387.137 1.633.944.249.817.686 1.763-.495 2.181-1.917.679-3.852 1.334-5.821 1.828-1.076.271-1.481-.664-1.678-1.546-.18-.8-.131-1.546.883-1.813.919-.244 1.826-.527 2.738-.794m-.526-13.827c1.138-.105 2.067-.278 2.99-.255 1.258.032 2.109.758 2.504 1.945.269.819.151 1.465-.874 1.719-1.405.348-2.782.809-4.175 1.202-1.452.406-1.857.116-2.158-1.573 1.277-.439 2.5-.994 1.713-3.038"/></g><g fill="#E51A31" fill-rule="evenodd" clip-rule="evenodd"><path d="M683.625 244.353c.323.355.323.355 2.403-.607l1.373 1.225c-.713 1.553.372 2.384 1.425 3.288-1.217 1.701.137 2.607 1.188 3.593-1.736 1.673-.364 3.346 1.654 4.277-2.175.918-4.341 1.85-6.528 2.734-.202.082-.626-.059-.781-.239-2.102-2.458-4.173-4.937-6.032-7.152.485-1.542.899-2.759 1.255-3.992.534-1.847.966-3.729 1.561-5.557.783-2.394 3.816-3.173 5.774-1.55.592.493.64 1.469-.085 2.015-.985.737-2.101 1.3-3.207 1.965"/><path d="M694.062 248.949c-.559.469-1.13.928-1.676 1.414-.805.715-1.469.439-2.067-.273-.61-.724-.703-1.393.142-2.062 1.148-.903 2.256-1.858 3.359-2.812.77-.667 1.356-.456 1.951.253.611.727.81 1.387-.029 2.072-.565.462-1.122.939-1.68 1.408m-1.26-3.567c-.587.493-1.178.98-1.759 1.48-.75.645-1.356.295-1.871-.308-.545-.636-.82-1.32-.017-1.992 1.204-1.009 2.403-2.025 3.615-3.029.769-.638 1.357-.219 1.85.392.487.603.783 1.259.032 1.902-.612.523-1.232 1.036-1.85 1.555m.167 5.158c.622-.521 1.246-1.036 1.861-1.564.601-.521 1.128-.37 1.596.175.476.551 1.142 1.139.364 1.87-1.261 1.188-2.544 2.363-3.91 3.423-.747.581-1.382-.009-1.838-.629-.416-.562-.633-1.16.064-1.716.633-.505 1.244-1.037 1.863-1.559m-5.159-10.596c.85-.473 1.515-.926 2.243-1.225.99-.407 1.903-.133 2.619.656.491.545.622 1.089-.092 1.641-.975.753-1.89 1.585-2.841 2.37-.992.815-1.407.728-2.222-.485.846-.781 1.607-1.634.293-2.957"/></g><g fill="#E51A31" fill-rule="evenodd" clip-rule="evenodd"><path d="M660.489 261.982c.323.354.323.354 2.403-.607l1.373 1.225c-.713 1.553.372 2.384 1.425 3.288-1.217 1.701.137 2.607 1.188 3.593-1.736 1.673-.364 3.346 1.654 4.277-2.175.918-4.341 1.85-6.528 2.734-.202.082-.626-.059-.781-.239-2.102-2.458-4.173-4.937-6.032-7.152.485-1.542.899-2.759 1.255-3.992.534-1.847.966-3.728 1.561-5.557.783-2.394 3.816-3.173 5.774-1.55.592.493.64 1.469-.085 2.015-.985.737-2.1 1.3-3.207 1.965"/><path d="M670.927 266.578c-.559.469-1.13.928-1.676 1.414-.805.715-1.469.439-2.067-.273-.61-.724-.703-1.393.142-2.062 1.147-.903 2.256-1.858 3.359-2.812.771-.667 1.356-.456 1.951.253.611.727.81 1.387-.029 2.072-.566.462-1.123.939-1.68 1.408m-1.261-3.567c-.587.493-1.178.98-1.759 1.48-.75.645-1.355.295-1.871-.308-.545-.636-.82-1.32-.017-1.992 1.204-1.009 2.403-2.025 3.615-3.029.768-.638 1.356-.219 1.85.392.487.603.783 1.259.032 1.902-.612.523-1.232 1.036-1.85 1.555m.167 5.158c.622-.522 1.246-1.036 1.861-1.564.601-.521 1.128-.37 1.596.175.476.551 1.142 1.139.364 1.87-1.261 1.188-2.544 2.363-3.91 3.423-.747.581-1.382-.009-1.838-.629-.416-.562-.633-1.16.064-1.716.633-.505 1.244-1.037 1.863-1.559m-5.158-10.596c.85-.473 1.515-.926 2.243-1.226.99-.407 1.903-.133 2.619.656.491.545.622 1.089-.092 1.641-.975.753-1.89 1.585-2.841 2.37-.992.815-1.407.728-2.222-.485.845-.78 1.606-1.633.293-2.956"/></g><g fill="#E51A31" fill-rule="evenodd" clip-rule="evenodd"><path d="M678.508 187.456c.444.428.444.428 3.029-.975.601.47 1.21.946 1.861 1.458-.786 2.05.672 3.025 2.097 4.097-1.42 2.28.388 3.331 1.815 4.509-2.089 2.286-.191 4.318 2.471 5.347-2.712 1.355-5.412 2.727-8.144 4.039-.253.122-.807-.024-1.02-.243-2.896-2.977-5.754-5.987-8.32-8.673.497-2.016.926-3.61 1.282-5.22.533-2.412.932-4.858 1.545-7.25.809-3.133 4.633-4.38 7.274-2.459.8.582.94 1.829.057 2.588-1.201 1.027-2.584 1.839-3.947 2.782"/><path d="M692.262 192.493c-.677.646-1.371 1.282-2.03 1.949-.973.982-1.847.683-2.674-.18-.842-.877-1.015-1.729.014-2.654 1.398-1.252 2.739-2.566 4.075-3.881.933-.917 1.701-.695 2.522.165.844.881 1.151 1.712.133 2.658-.689.639-1.362 1.296-2.04 1.943m-1.907-4.47c-.712.68-1.431 1.354-2.136 2.042-.907.888-1.711.489-2.422-.242-.752-.771-1.159-1.624-.185-2.552 1.461-1.392 2.915-2.793 4.385-4.179.934-.881 1.722-.393 2.404.35.675.734 1.107 1.551.196 2.436-.741.722-1.494 1.431-2.242 2.145m.637 6.599c.753-.719 1.511-1.43 2.257-2.157.727-.717 1.415-.566 2.061.094.654.668 1.556 1.367.619 2.368-1.52 1.626-3.066 3.237-4.731 4.708-.909.806-1.772.102-2.409-.656-.578-.685-.905-1.435-.057-2.204.769-.701 1.508-1.434 2.26-2.153m-7.48-13.16c1.05-.676 1.865-1.312 2.774-1.755 1.236-.602 2.43-.327 3.411.626.675.659.886 1.346.018 2.111-1.188 1.045-2.294 2.187-3.448 3.27-1.205 1.126-1.745 1.049-2.887-.44 1.017-1.068 1.924-2.223.132-3.812"/></g><g fill="#E51A31" fill-rule="evenodd" clip-rule="evenodd"><path d="M651.468 210.495c.444.428.444.428 3.029-.976.601.47 1.21.946 1.861 1.458-.786 2.05.672 3.025 2.097 4.097-1.42 2.28.388 3.331 1.815 4.509-2.089 2.286-.191 4.318 2.471 5.347-2.712 1.355-5.412 2.727-8.144 4.04-.253.122-.807-.024-1.02-.243-2.896-2.977-5.754-5.987-8.32-8.673.497-2.016.926-3.61 1.282-5.22.533-2.412.932-4.858 1.545-7.25.809-3.133 4.633-4.38 7.274-2.46.8.582.94 1.829.057 2.588-1.201 1.028-2.584 1.84-3.947 2.783"/><path d="M665.222 215.532c-.677.647-1.371 1.282-2.03 1.949-.973.982-1.847.683-2.674-.18-.842-.878-1.015-1.729.014-2.654 1.397-1.253 2.739-2.566 4.075-3.881.933-.917 1.701-.695 2.521.165.844.881 1.151 1.712.133 2.658-.688.638-1.361 1.295-2.039 1.943m-1.907-4.47c-.712.68-1.431 1.354-2.136 2.043-.907.888-1.711.489-2.422-.242-.752-.771-1.159-1.624-.185-2.552 1.461-1.392 2.915-2.792 4.385-4.179.934-.881 1.722-.393 2.404.35.675.734 1.107 1.551.196 2.436-.741.72-1.494 1.429-2.242 2.144m.637 6.599c.753-.719 1.511-1.43 2.257-2.157.727-.717 1.415-.566 2.06.094.654.668 1.556 1.367.619 2.368-1.52 1.626-3.066 3.237-4.73 4.708-.909.806-1.773.102-2.409-.656-.578-.685-.905-1.435-.057-2.204.769-.702 1.508-1.435 2.26-2.153m-7.48-13.16c1.05-.676 1.865-1.312 2.774-1.755 1.236-.602 2.43-.327 3.411.626.675.659.886 1.346.018 2.111-1.189 1.045-2.294 2.187-3.448 3.271-1.205 1.126-1.745 1.049-2.887-.44 1.017-1.069 1.924-2.225.132-3.813"/></g><g fill="#E51A31" fill-rule="evenodd" clip-rule="evenodd"><path d="M595.185 112.801c.417-.454.417-.454-1.045-3.005l1.415-1.894c2.066.738 3.009-.742 4.048-2.19 2.312 1.367 3.32-.463 4.466-1.92 2.334 2.037 4.321.093 5.288-2.592 1.417 2.68 2.851 5.349 4.227 8.049.127.25-.007.808-.221 1.025-2.909 2.963-5.853 5.89-8.479 8.517-2.026-.451-3.63-.844-5.248-1.161-2.423-.479-4.878-.82-7.282-1.38-3.151-.736-4.486-4.531-2.626-7.215.562-.812 1.806-.982 2.585-.115 1.054 1.177 1.898 2.542 2.872 3.881"/><path d="M599.904 98.937c.662.662 1.313 1.341 1.996 1.984 1.004.95.725 1.831-.119 2.678-.858.863-1.704 1.054-2.653.046-1.285-1.367-2.629-2.679-3.975-3.985-.938-.911-.733-1.684.107-2.524.861-.864 1.685-1.189 2.654-.193.655.672 1.326 1.33 1.99 1.994m-4.424 2.008c.695.696 1.386 1.4 2.09 2.088.909.888.529 1.699-.186 2.427-.754.77-1.598 1.196-2.547.243-1.425-1.428-2.858-2.85-4.278-4.287-.902-.914-.432-1.713.295-2.413.719-.692 1.525-1.144 2.431-.251.736.725 1.463 1.461 2.195 2.193m6.582-.788c-.736-.736-1.465-1.479-2.209-2.206-.732-.712-.599-1.402.048-2.063.651-.67 1.329-1.587 2.353-.673 1.659 1.482 3.306 2.991 4.814 4.62.827.892.143 1.771-.601 2.424-.672.595-1.413.939-2.202.108-.717-.753-1.467-1.475-2.203-2.21m-12.984 7.781c-.699-1.035-1.355-1.835-1.819-2.734-.629-1.223-.382-2.421.549-3.424.643-.691 1.324-.917 2.109-.067 1.072 1.164 2.239 2.243 3.349 3.374 1.153 1.177 1.09 1.719-.374 2.895-1.091-.993-2.267-1.873-3.814-.044"/></g><g fill="#E51A31" fill-rule="evenodd" clip-rule="evenodd"><path d="M621.802 80.371c.616-.01.616-.01 1.46-2.827.758-.09 1.524-.181 2.348-.277.888 2.006 2.609 1.671 4.376 1.428.6 2.618 2.622 2.09 4.467 1.918.13 3.095 2.907 3.198 5.521 2.051-.968 2.872-1.918 5.75-2.929 8.606-.094.264-.59.551-.896.546-4.152-.07-8.301-.19-12.015-.287-1.068-1.78-1.887-3.214-2.771-4.606-1.32-2.087-2.764-4.103-4.013-6.232-1.636-2.792.198-6.373 3.426-6.872.977-.151 1.955.634 1.863 1.796-.127 1.575-.537 3.126-.837 4.756"/><path d="M635.106 74.248c-.024.936-.068 1.876-.065 2.814.002 1.382-.829 1.786-2.023 1.757-1.217-.029-1.938-.511-1.86-1.892.107-1.874.134-3.751.154-5.626.015-1.308.716-1.691 1.904-1.66 1.22.03 2.023.403 1.968 1.792-.038.938-.053 1.877-.078 2.815m-4.502-1.826c-.026.983-.061 1.969-.075 2.953-.019 1.271-.868 1.553-1.889 1.536-1.077-.017-1.968-.335-1.93-1.68.055-2.016.1-4.035.164-6.054.042-1.284.946-1.493 1.953-1.447.997.045 1.88.319 1.856 1.59-.018 1.034-.052 2.067-.079 3.102m5.103 4.232c.027-1.041.065-2.08.08-3.121.012-1.021.604-1.4 1.529-1.386.934.011 2.065-.129 2.107 1.243.067 2.224.107 4.457-.037 6.672-.077 1.214-1.185 1.322-2.171 1.233-.894-.078-1.654-.378-1.595-1.522.053-1.038.06-2.08.087-3.119m-14.582-4.061c.269-1.22.397-2.246.73-3.202.454-1.298 1.493-1.944 2.861-1.959.943-.009 1.577.329 1.501 1.484-.107 1.579-.085 3.169-.142 4.752-.061 1.647-.497 1.974-2.357 1.722-.03-1.476-.202-2.934-2.593-2.797"/></g><g fill="#E51A31" fill-rule="evenodd" clip-rule="evenodd"><path d="M708.008 156.006c.572.368.572.368 3.074-1.702.75.383 1.511.768 2.326 1.185-.415 2.386 1.372 3.134 3.144 3.993-1.054 2.773 1.128 3.527 2.927 4.501-1.778 2.922.709 4.72 3.814 5.267-2.649 2.045-5.286 4.106-7.965 6.11-.248.185-.88.144-1.156-.047-3.772-2.61-7.508-5.263-10.86-7.628.11-2.29.237-4.109.278-5.929.066-2.728-.023-5.463.134-8.184.21-3.568 4.09-5.732 7.359-4.212.989.46 1.408 1.781.609 2.792-1.083 1.368-2.409 2.542-3.684 3.854"/><path d="M723.98 158.538c-.596.845-1.212 1.681-1.785 2.544-.846 1.271-1.856 1.132-2.935.374-1.1-.772-1.467-1.657-.548-2.879 1.245-1.656 2.422-3.363 3.591-5.073.815-1.192 1.693-1.114 2.766-.357 1.102.775 1.611 1.61.71 2.853-.611.838-1.201 1.691-1.799 2.538m-3.016-4.436c-.626.887-1.262 1.771-1.879 2.667-.796 1.155-1.749.894-2.675.253-.979-.677-1.604-1.515-.743-2.727 1.286-1.818 2.565-3.646 3.862-5.46.826-1.153 1.784-.791 2.68-.131.889.652 1.531 1.445.729 2.597-.649.938-1.314 1.866-1.974 2.801m2.095 7.013c.663-.939 1.334-1.871 1.985-2.817.638-.931 1.413-.915 2.255-.335.851.583 1.975 1.149 1.174 2.434-1.302 2.083-2.635 4.158-4.125 6.106-.814 1.067-1.898.487-2.75-.199-.773-.62-1.287-1.36-.531-2.375.684-.923 1.329-1.875 1.992-2.814m-10.906-12.668c.996-.955 1.742-1.819 2.634-2.493 1.213-.914 2.563-.87 3.828-.045.873.57 1.248 1.269.47 2.283-1.066 1.385-2.02 2.858-3.042 4.277-1.066 1.476-1.667 1.508-3.22.136.874-1.374 1.61-2.818-.67-4.158"/></g><g fill="#E51A31" fill-rule="evenodd" clip-rule="evenodd"><path d="M669.655 151.441c.615.396.615.396 3.309-1.831.808.412 1.625.826 2.503 1.275-.446 2.568 1.477 3.373 3.384 4.297-1.135 2.984 1.213 3.795 3.149 4.843-1.914 3.145.764 5.079 4.103 5.668-2.851 2.201-5.688 4.419-8.571 6.576-.267.199-.947.155-1.245-.051-4.059-2.809-8.079-5.665-11.687-8.21.118-2.465.254-4.422.299-6.38.072-2.935-.025-5.879.145-8.807.226-3.84 4.4-6.169 7.921-4.533 1.063.495 1.514 1.916.655 3.004-1.165 1.474-2.593 2.737-3.965 4.149"/><path d="M686.845 154.167c-.641.91-1.305 1.809-1.921 2.738-.91 1.368-1.998 1.218-3.16.402-1.183-.831-1.577-1.783-.589-3.098 1.34-1.782 2.607-3.62 3.863-5.46.878-1.283 1.824-1.199 2.977-.384 1.187.834 1.734 1.732.765 3.07-.657.901-1.292 1.82-1.935 2.732m-3.245-4.775c-.675.955-1.359 1.906-2.023 2.87-.857 1.243-1.883.962-2.88.273-1.054-.728-1.725-1.63-.8-2.934 1.385-1.957 2.762-3.923 4.156-5.877.889-1.241 1.921-.851 2.885-.141.956.702 1.647 1.555.785 2.795-.699 1.009-1.414 2.008-2.123 3.014m2.252 7.548c.715-1.011 1.437-2.013 2.138-3.032.687-1.002 1.521-.984 2.426-.361.916.627 2.126 1.236 1.264 2.619-1.4 2.243-2.835 4.475-4.439 6.571-.877 1.148-2.044.525-2.96-.214-.832-.667-1.386-1.464-.57-2.557.734-.991 1.428-2.016 2.141-3.026m-11.736-13.633c1.072-1.028 1.875-1.958 2.835-2.683 1.306-.983 2.758-.937 4.12-.049.939.613 1.342 1.366.506 2.457-1.147 1.491-2.175 3.076-3.274 4.604-1.147 1.588-1.795 1.623-3.466.146.941-1.479 1.733-3.033-.721-4.475"/></g><g fill="#E51A31" fill-rule="evenodd" clip-rule="evenodd"><path d="M655.477 119.44c.591.176.591.176 2.243-2.255l2.322.443c.242 2.18 1.985 2.38 3.743 2.68-.218 2.677 1.87 2.783 3.681 3.174-.808 2.99 1.809 3.926 4.646 3.619-1.788 2.448-3.561 4.905-5.386 7.324-.169.224-.728.348-1.017.251-3.939-1.318-7.858-2.683-11.37-3.894-.482-2.019-.831-3.633-1.254-5.226-.631-2.388-1.399-4.745-1.949-7.151-.719-3.155 2.109-6.017 5.337-5.521.977.15 1.674 1.193 1.235 2.274-.596 1.463-1.453 2.819-2.231 4.282"/><path d="M670.009 117.611c-.306.885-.631 1.768-.91 2.663-.415 1.319-1.329 1.454-2.459 1.066-1.151-.394-1.693-1.071-1.204-2.365.666-1.754 1.258-3.536 1.842-5.318.408-1.243 1.192-1.397 2.317-1.009 1.154.396 1.807.994 1.336 2.302-.319.882-.617 1.773-.922 2.661m-3.743-3.098c-.321.93-.651 1.858-.961 2.793-.4 1.206-1.296 1.22-2.264.896-1.022-.341-1.775-.913-1.334-2.184.659-1.906 1.311-3.818 1.981-5.724.427-1.211 1.352-1.138 2.298-.791.938.343 1.696.871 1.29 2.075-.329.981-.674 1.956-1.01 2.935m3.59 5.572c.34-.984.688-1.964 1.017-2.951.318-.971.998-1.153 1.876-.861.887.292 2.008.5 1.635 1.82-.606 2.141-1.241 4.282-2.046 6.351-.44 1.134-1.528.904-2.441.521-.829-.344-1.464-.858-1.061-1.932.361-.974.682-1.965 1.02-2.948m-12.68-8.266c.624-1.081 1.056-2.022 1.66-2.832.824-1.101 2.01-1.404 3.319-1.006.902.275 1.404.789.984 1.867-.577 1.474-1.036 2.996-1.566 4.488-.555 1.552-1.069 1.733-2.767.932.415-1.416.69-2.858-1.63-3.449"/></g><g fill="#E51A31" fill-rule="evenodd" clip-rule="evenodd"><path d="M621.421 121.947c.591.176.591.176 2.243-2.255l2.322.443c.242 2.18 1.985 2.38 3.743 2.68-.218 2.677 1.87 2.783 3.681 3.174-.808 2.99 1.809 3.926 4.646 3.619-1.788 2.448-3.56 4.905-5.386 7.324-.169.224-.729.348-1.018.251-3.938-1.318-7.858-2.683-11.37-3.893-.482-2.02-.831-3.633-1.254-5.227-.631-2.388-1.399-4.745-1.949-7.151-.719-3.155 2.109-6.017 5.337-5.521.977.15 1.674 1.193 1.235 2.274-.595 1.463-1.453 2.819-2.23 4.282"/><path d="M635.952 120.118c-.306.885-.631 1.768-.91 2.663-.415 1.319-1.329 1.454-2.459 1.066-1.151-.394-1.693-1.071-1.204-2.365.666-1.754 1.258-3.536 1.842-5.318.408-1.243 1.192-1.397 2.316-1.009 1.154.396 1.807.994 1.336 2.302-.317.882-.615 1.773-.921 2.661m-3.743-3.098c-.321.93-.651 1.858-.961 2.793-.4 1.206-1.296 1.22-2.264.896-1.022-.341-1.775-.913-1.334-2.184.659-1.906 1.31-3.818 1.98-5.724.427-1.212 1.352-1.138 2.298-.791.938.343 1.696.871 1.29 2.075-.327.98-.672 1.955-1.009 2.935m3.591 5.572c.34-.984.688-1.964 1.017-2.951.318-.971.998-1.153 1.876-.861.887.292 2.008.5 1.635 1.82-.605 2.141-1.241 4.282-2.046 6.351-.44 1.134-1.528.904-2.442.521-.829-.344-1.464-.858-1.062-1.932.363-.974.683-1.965 1.022-2.948m-12.681-8.266c.624-1.082 1.056-2.022 1.66-2.833.824-1.101 2.01-1.404 3.319-1.006.902.275 1.404.789.984 1.867-.577 1.474-1.036 2.996-1.566 4.488-.555 1.552-1.069 1.733-2.767.932.415-1.416.691-2.858-1.63-3.448"/></g><g fill="#E51A31" fill-rule="evenodd" clip-rule="evenodd"><path d="M622.725 164.361c.481-.385.481-.385-.575-3.128.545-.535 1.096-1.077 1.688-1.656 1.93 1.043 3.087-.275 4.335-1.549 2.076 1.705 3.353.049 4.706-1.216 1.997 2.368 4.257.752 5.621-1.756.993 2.864 2.002 5.721 2.949 8.6.088.266-.129.797-.373.979-3.327 2.485-6.683 4.929-9.679 7.124-1.935-.754-3.459-1.387-5.01-1.948-2.322-.842-4.696-1.554-6.987-2.474-3.002-1.208-3.742-5.162-1.495-7.531.68-.717 1.935-.695 2.572.281.863 1.324 1.489 2.802 2.248 4.274"/><path d="M629.502 151.378c.554.755 1.094 1.525 1.67 2.266.848 1.092.438 1.92-.525 2.628-.979.722-1.845.781-2.63-.358-1.062-1.547-2.189-3.049-3.32-4.544-.789-1.044-.468-1.776.491-2.479.983-.723 1.846-.918 2.652.214.545.763 1.107 1.516 1.662 2.273m-4.678 1.311c.58.794 1.155 1.594 1.747 2.381.763 1.016.264 1.76-.554 2.371-.862.646-1.762.939-2.555-.148-1.19-1.628-2.391-3.253-3.574-4.889-.753-1.041-.165-1.759.659-2.339.816-.575 1.683-.897 2.44.122.619.828 1.224 1.667 1.837 2.502m6.624.224c-.615-.84-1.221-1.685-1.846-2.517-.616-.815-.378-1.477.362-2.032.745-.562 1.555-1.365 2.427-.306 1.414 1.718 2.811 3.46 4.054 5.301.682 1.007-.129 1.771-.963 2.303-.755.485-1.54.714-2.192-.229-.595-.853-1.227-1.682-1.842-2.52m-14.018 5.71c-.532-1.129-1.06-2.02-1.381-2.978-.435-1.305-.009-2.452 1.065-3.301.74-.585 1.448-.704 2.096.255.882 1.314 1.871 2.559 2.795 3.845.959 1.34.814 1.866-.812 2.804-.927-1.147-1.956-2.195-3.763-.625"/></g><text fill="#008752" font-family="'Poppins-Regular'" font-size="46.76" letter-spacing=".782" transform="matrix(1.2793 0 0 1 666.52 777.967)">Cameroun</text></svg>